<svg xmlns="http://www.w3.org/2000/svg" width="24" height="24" viewBox="0 0 24 24" fill="none"><script xmlns="" id="datalayer-checker-script"/><script xmlns=""/>
<path fill-rule="evenodd" clip-rule="evenodd" d="M11.1737 13.9671C11.6806 14.2781 12.3193 14.2781 12.8263 13.9671L22 8.33826V18.4204C22 19.293 21.2926 20.0004 20.42 20.0004H3.58C2.70739 20.0004 2 19.293 2 18.4204V8.33829L11.1737 13.9671Z" fill="#155728"/>
<path d="M2 5.58C2 4.70739 2.70739 4 3.58 4H20.42C21.2926 4 22 4.70739 22 5.58V6.60367C22 6.84955 21.871 7.07741 21.6601 7.20391L12.7717 12.537C12.2967 12.822 11.7033 12.822 11.2283 12.537L2.33985 7.20391C2.12901 7.07741 2 6.84955 2 6.60367V5.58Z" fill="#B4E7C3"/>
<script xmlns=""/></svg>