<svg width="38" height="38" viewBox="0 0 38 38" fill="none" xmlns="http://www.w3.org/2000/svg">
<path fill-rule="evenodd" clip-rule="evenodd" d="M11.0834 4.75C9.33451 4.75 7.91675 6.16777 7.91675 7.91667V31.6667C7.91675 33.4156 9.33451 34.8333 11.0834 34.8333H26.9167C28.6657 34.8333 30.0834 33.4156 30.0834 31.6667V7.91667C30.0834 6.16777 28.6657 4.75 26.9168 4.75H11.0834ZM14.2501 7.91667C12.5012 7.91667 11.0835 9.33443 11.0835 11.0833V25.3333C11.0835 27.0822 12.5012 28.5 14.2501 28.5H23.7501C25.499 28.5 26.9168 27.0822 26.9168 25.3333V11.0833C26.9168 9.33443 25.499 7.91667 23.7501 7.91667H14.2501Z" fill="#155728"/>
<rect x="15.8333" y="30.0833" width="6.33333" height="3.16667" rx="1.58333" fill="#B4E7C3"/>
</svg>
