<svg width="38" height="38" viewBox="0 0 38 38" fill="none" xmlns="http://www.w3.org/2000/svg">
<circle cx="8.70792" cy="23.7491" r="2.37491" fill="white"/>
<path d="M4.75 7.91637C4.75 6.16753 6.16771 4.74982 7.91655 4.74982H25.3326C27.0814 4.74982 28.4991 6.16753 28.4991 7.91637V30.0822C28.4991 31.8311 27.0814 33.2488 25.3326 33.2488H10.2306L7.49028 30.3989L4.75 27.549V7.91637Z" fill="#043B56"/>
<circle cx="26.9154" cy="25.3324" r="7.91638" fill="#B3E4FB" stroke="white" stroke-width="2.37491"/>
<path d="M27.3905 22.4828V25.6494L25.0156 27.2327" stroke="white" stroke-width="2.37491" stroke-linecap="round" stroke-linejoin="round"/>
<path d="M24.541 10.2913L10.2915 10.2913L8.70826 10.2913" stroke="white" stroke-width="2.37491" stroke-linecap="round" stroke-linejoin="round"/>
<path d="M17.416 15.8328L9.49964 15.8328L8.708 15.8328" stroke="white" stroke-width="2.37491" stroke-linecap="round" stroke-linejoin="round"/>
<path d="M14.249 21.3742L9.4992 21.3742L8.70756 21.3742" stroke="white" stroke-width="2.37491" stroke-linecap="round" stroke-linejoin="round"/>
<path d="M14.249 26.9157L8.70756 26.9157" stroke="white" stroke-width="2.37491" stroke-linecap="round" stroke-linejoin="round"/>
</svg>
