<svg width="38" height="38" viewBox="0 0 38 38" fill="none" xmlns="http://www.w3.org/2000/svg">
<path d="M26.9158 22.1659V12.6662C26.9158 9.16856 24.0803 6.33313 20.5827 6.33313H17.4161C13.9184 6.33313 11.083 9.16855 11.083 12.6662V22.1659" stroke="#B3E4FB" stroke-width="3.95819"/>
<path fill-rule="evenodd" clip-rule="evenodd" d="M7.91655 17.416C6.16771 17.416 4.75 18.8337 4.75 20.5826V31.6655C4.75 33.4143 6.16771 34.832 7.91655 34.832H30.0824C31.8312 34.832 33.249 33.4143 33.249 31.6655V20.5826C33.249 18.8337 31.8312 17.416 30.0824 17.416H7.91655ZM22.9575 24.5408C22.9575 25.8357 22.3356 26.9855 21.3742 27.7076V29.2906C21.3742 30.6022 20.3109 31.6655 18.9993 31.6655C17.6877 31.6655 16.6244 30.6022 16.6244 29.2906V27.7076C15.663 26.9855 15.0411 25.8357 15.0411 24.5408C15.0411 22.3547 16.8133 20.5826 18.9993 20.5826C21.1854 20.5826 22.9575 22.3547 22.9575 24.5408Z" fill="#043B56"/>
</svg>
