<svg width="592" height="439" viewBox="0 0 592 439" fill="none" xmlns="http://www.w3.org/2000/svg">
<g opacity="0.5">
<line x1="101" y1="7" x2="101" y2="407" stroke="url(#paint0_linear_304_8142)" stroke-width="2"/>
<line x1="201" y1="7" x2="201" y2="407" stroke="url(#paint1_linear_304_8142)" stroke-width="2"/>
<line x1="301" y1="7" x2="301" y2="407" stroke="url(#paint2_linear_304_8142)" stroke-width="2"/>
<line x1="401" y1="7" x2="401" y2="407" stroke="url(#paint3_linear_304_8142)" stroke-width="2"/>
<line x1="501" y1="7" x2="501" y2="407" stroke="url(#paint4_linear_304_8142)" stroke-width="2"/>
<line y1="106.5" x2="713" y2="106.5" stroke="url(#paint5_linear_304_8142)"/>
<line y1="206.5" x2="713" y2="206.5" stroke="url(#paint6_linear_304_8142)"/>
<line y1="306.5" x2="713" y2="306.5" stroke="url(#paint7_linear_304_8142)"/>
</g>
<path d="M335.268 206.637L363.878 235.819C365.411 237.608 368.69 239.875 372.613 239.252C373.74 239.074 374.919 238.656 376.126 237.922C376.976 237.404 377.839 236.729 378.707 235.868L378.755 235.819L414.232 200.342C417.093 198.626 419.191 200.914 419.954 202.059C432.774 217.582 457.435 231.315 482.556 211.287C488.335 200.342 499.15 188.399 474.692 162.65C472.49 160.077 469.895 157.562 466.875 155.138C463.442 152.849 464.014 151.705 464.586 150.56C469.927 145.41 482.553 133.051 490.335 124.811C493.41 121.556 494.561 118.431 494.629 115.678V115.157C494.531 111.187 492.215 108.049 490.335 106.501C458.864 74.8385 398.442 17.9964 386.998 7.01008C375.554 -3.97626 365.254 2.62322 362.965 7.01013C331.494 39.4351 263.513 96.4299 253.442 104.212C248.436 108.081 246.993 111.921 247.23 115.157C247.469 118.43 249.427 121.084 251.154 122.522C260.69 132.631 280.336 153.193 282.625 154.566C284.914 155.939 282.816 158.19 281.481 159.144C277.696 161.667 274.549 164.378 271.984 167.21C256.032 184.82 262.554 207.088 277.706 217.752C291.06 227.15 311.116 227.536 328.401 207.781C329.819 206.161 331.524 204.885 333.21 205.252C333.906 205.403 334.599 205.834 335.268 206.637Z" fill="#B4E7C3"/>
<path d="M129.903 236.964C131.293 237.854 129.331 240.015 128.186 240.969L118.69 250.838L99.0037 271.296L90.4206 279.879C89.1766 281.123 88.3653 282.151 88.3631 283.385C88.3601 284.99 89.7242 286.945 93.2816 290.179C128.377 324.892 200.284 396.037 207.15 402.903C209.557 405.31 211.846 406.521 213.896 406.982C217.693 407.834 220.665 406.106 222.028 404.62L258.649 369.715C259.323 369.041 259.623 368.322 259.661 367.597L259.624 366.927C259.386 365.416 258.153 363.935 256.932 362.849C235.792 344.031 234.175 324.553 241.82 311.423C253.005 292.213 284.015 286.59 302.709 316.5C303.645 317.998 304.741 318.782 305.801 319.132C307.332 319.637 308.786 319.24 309.575 318.789L335.897 291.323C338.724 288.294 339.799 285.599 339.938 283.385C340.113 280.581 338.786 278.549 337.613 277.59L299.848 239.252C297.559 237.879 295.842 239.825 295.27 240.969C285.5 256.085 271.335 261.046 258.497 259.352C256.391 259.075 254.32 258.618 252.311 257.998C228.546 250.661 213.302 220.441 248.349 192.904C250.578 192.012 251.27 190.903 251.216 189.868C251.16 188.778 250.277 187.769 249.494 187.182L224.317 164.866C213.33 157.084 207.15 161.623 205.434 164.866C197.804 173.067 181.973 189.814 179.685 191.187C177.396 192.56 174.535 191.759 173.39 191.187C144.154 156.382 115.554 168.787 109.092 191.187C104.931 205.614 109.953 224.187 129.903 236.964Z" fill="#B4E7C3"/>
<path d="M207.15 402.903C200.284 396.037 128.377 324.892 93.2816 290.179C89.7242 286.945 88.3601 284.99 88.3631 283.385C86.7235 294.066 84.4282 317.145 88.3631 324.012C92.2979 330.878 164.389 402.022 199.943 436.736C202.786 438.513 208.113 438.106 211.959 437.389L213.896 406.982C211.846 406.521 209.557 405.31 207.15 402.903Z" fill="#227B3B"/>
<path d="M305.801 319.132C304.741 318.782 303.645 317.998 302.709 316.5C284.015 286.59 253.005 292.213 241.82 311.423C260.216 291.282 292.139 325.919 305.801 345.756V319.132Z" fill="#227B3B"/>
<path d="M258.649 369.715L222.028 404.62C220.665 406.106 217.693 407.834 213.896 406.982L211.959 437.389C213.067 437.182 214.053 436.95 214.82 436.736L261.169 394.965L259.661 367.597C259.623 368.322 259.323 369.041 258.649 369.715Z" fill="#155728"/>
<path d="M248.349 192.904C213.302 220.441 228.546 250.661 252.311 257.998C254.32 258.618 256.391 259.075 258.497 259.352C229.886 246.764 252.854 224.448 260.025 208.998L251.216 189.868C251.27 190.903 250.578 192.012 248.349 192.904Z" fill="#0B2E16"/>
<path d="M128.186 240.969C129.331 240.015 131.293 237.854 129.903 236.964C109.953 224.187 104.931 205.614 109.092 191.187C104.81 200.176 97.529 221.129 102.668 233.031C105.911 238.036 113.655 248.604 118.69 250.838L128.186 240.969Z" fill="#227B3B"/>
<path d="M363.878 235.819L335.268 206.637C334.599 205.834 333.906 205.403 333.21 205.252L333.839 227.309L368.171 255.919C371.874 258.141 372.177 259.353 376.754 258.208L376.126 237.922C374.919 238.656 373.74 239.074 372.613 239.252C368.69 239.875 365.411 237.608 363.878 235.819Z" fill="#0B2E16"/>
<path d="M335.897 291.323L309.575 318.789C308.786 319.24 307.332 319.637 305.801 319.132V345.756C317.18 336.004 340.206 312.738 341.278 311.423C342.35 310.108 343.06 306.87 342.994 306.273L339.938 283.385C339.799 285.599 338.724 288.294 335.897 291.323Z" fill="#155728"/>
<path d="M419.954 202.059C419.191 200.914 417.093 198.626 414.232 200.342L378.755 235.819L378.707 235.868C377.839 236.729 376.976 237.404 376.126 237.922L376.754 258.208C381.904 256.492 381.332 255.919 381.904 255.347L417.381 217.581C445.419 237.922 458.58 237.037 482.556 211.287C457.435 231.315 432.774 217.582 419.954 202.059Z" fill="#155728"/>
<path d="M490.335 124.811C482.553 133.051 469.927 145.41 464.586 150.56C464.014 151.705 463.442 152.849 466.875 155.138C469.895 157.562 472.49 160.077 474.692 162.65L495.258 143.767L494.629 115.678C494.561 118.431 493.41 121.556 490.335 124.811Z" fill="#155728"/>
<path d="M328.401 207.781C311.116 227.536 291.06 227.15 277.706 217.752C286.862 227.423 311.409 241.042 333.839 227.309L333.21 205.252C331.524 204.885 329.819 206.161 328.401 207.781Z" fill="#0B2E16"/>
<path d="M281.481 159.144C282.816 158.19 284.914 155.939 282.625 154.566C280.336 153.193 260.69 132.631 251.154 122.522C249.427 121.084 247.469 118.43 247.23 115.157L247.859 143.767L271.984 167.21C274.549 164.378 277.696 161.667 281.481 159.144Z" fill="#0B2E16"/>
<path d="M295.27 240.969C295.842 239.825 297.559 237.879 299.848 239.252L337.613 277.59C338.786 278.549 340.113 280.581 339.938 283.385M295.27 240.969C285.5 256.085 271.335 261.046 258.497 259.352M295.27 240.969C283.898 258.564 266.57 262.4 252.311 257.998M378.755 235.819C378.739 235.835 378.723 235.852 378.707 235.868M378.755 235.819L378.707 235.868M378.755 235.819L414.232 200.342M414.232 200.342C417.093 198.626 419.191 200.914 419.954 202.059C432.774 217.582 457.435 231.315 482.556 211.287M414.232 200.342L378.707 235.868M378.707 235.868C377.839 236.729 376.976 237.404 376.126 237.922M109.092 191.187C104.931 205.614 109.953 224.187 129.903 236.964C131.293 237.854 129.331 240.015 128.186 240.969L118.69 250.838M109.092 191.187C115.554 168.787 144.154 156.382 173.39 191.187C174.535 191.759 177.396 192.56 179.685 191.187C181.973 189.814 197.804 173.067 205.434 164.866C207.15 161.623 213.33 157.084 224.317 164.866L249.494 187.182C250.277 187.769 251.16 188.778 251.216 189.868M109.092 191.187C104.81 200.176 97.529 221.129 102.668 233.031C105.911 238.036 113.655 248.604 118.69 250.838M118.69 250.838L99.0037 271.296L90.4206 279.879C89.1766 281.123 88.3653 282.151 88.3631 283.385M88.3631 283.385C88.3601 284.99 89.7242 286.945 93.2816 290.179C128.377 324.892 200.284 396.037 207.15 402.903C209.557 405.31 211.846 406.521 213.896 406.982M88.3631 283.385C86.7235 294.066 84.4282 317.145 88.3631 324.012C92.2979 330.878 164.389 402.022 199.943 436.736C202.786 438.513 208.113 438.106 211.959 437.389M259.624 366.927C259.386 365.416 258.153 363.935 256.932 362.849C235.792 344.031 234.175 324.553 241.82 311.423M259.624 366.927L259.661 367.597M259.624 366.927C259.659 367.15 259.672 367.374 259.661 367.597M213.896 406.982C217.693 407.834 220.665 406.106 222.028 404.62L258.649 369.715C259.323 369.041 259.623 368.322 259.661 367.597M213.896 406.982L211.959 437.389M211.959 437.389C213.067 437.182 214.053 436.95 214.82 436.736L261.169 394.965L259.661 367.597M305.801 319.132C307.332 319.637 308.786 319.24 309.575 318.789L335.897 291.323C338.724 288.294 339.799 285.599 339.938 283.385M305.801 319.132C304.741 318.782 303.645 317.998 302.709 316.5C284.015 286.59 253.005 292.213 241.82 311.423M305.801 319.132V345.756M305.801 345.756C292.139 325.919 260.216 291.282 241.82 311.423M305.801 345.756C317.18 336.004 340.206 312.738 341.278 311.423C342.35 310.108 343.06 306.87 342.994 306.273L339.938 283.385M251.216 189.868C251.27 190.903 250.578 192.012 248.349 192.904C213.302 220.441 228.546 250.661 252.311 257.998M251.216 189.868L260.025 208.998C252.854 224.448 229.886 246.764 258.497 259.352M258.497 259.352C256.391 259.075 254.32 258.618 252.311 257.998M277.706 217.752C291.06 227.15 311.116 227.536 328.401 207.781C329.819 206.161 331.524 204.885 333.21 205.252M277.706 217.752C286.862 227.423 311.409 241.042 333.839 227.309M277.706 217.752C262.554 207.088 256.032 184.82 271.984 167.21M333.839 227.309L368.171 255.919C371.874 258.141 372.177 259.353 376.754 258.208M333.839 227.309L333.21 205.252M482.556 211.287C458.58 237.037 445.419 237.922 417.381 217.581L381.904 255.347C381.332 255.919 381.904 256.492 376.754 258.208M482.556 211.287C488.335 200.342 499.15 188.399 474.692 162.65M247.23 115.157C247.469 118.43 249.427 121.084 251.154 122.522C260.69 132.631 280.336 153.193 282.625 154.566C284.914 155.939 282.816 158.19 281.481 159.144C277.696 161.667 274.549 164.378 271.984 167.21M247.23 115.157C246.993 111.921 248.436 108.081 253.442 104.212C263.513 96.4299 331.494 39.4351 362.965 7.01013C365.254 2.62322 375.554 -3.97626 386.998 7.01008C398.442 17.9964 458.864 74.8385 490.335 106.501C492.215 108.049 494.531 111.187 494.629 115.157M247.23 115.157L247.859 143.767L271.984 167.21M494.629 115.157V115.678M494.629 115.157C494.633 115.329 494.633 115.503 494.629 115.678M474.692 162.65C472.49 160.077 469.895 157.562 466.875 155.138C463.442 152.849 464.014 151.705 464.586 150.56C469.927 145.41 482.553 133.051 490.335 124.811C493.41 121.556 494.561 118.431 494.629 115.678M474.692 162.65L495.258 143.767L494.629 115.678M333.21 205.252C333.906 205.403 334.599 205.834 335.268 206.637L363.878 235.819C365.411 237.608 368.69 239.875 372.613 239.252C373.74 239.074 374.919 238.656 376.126 237.922M376.754 258.208L376.126 237.922" stroke="#B4E7C3" stroke-width="1.14441"/>
<path d="M143 285.5L225 283.5L222 312.5L146 312L143 285.5Z" fill="white"/>
<path d="M221.875 266.083C218.333 262.167 212.417 260.208 203.833 260.208H202.833V260.042C202.833 253.042 202.833 244.375 187.167 244.375H180.833C165.167 244.375 165.167 253.083 165.167 260.042V260.25H164.167C155.542 260.25 149.667 262.208 146.125 266.125C142 270.708 142.125 276.875 142.542 281.083L142.583 281.375L142.906 284.764C142.965 285.388 143.302 285.952 143.826 286.295C144.825 286.949 146.498 288.027 147.5 288.583C148.083 288.958 148.708 289.292 149.333 289.625C156.458 293.542 164.292 296.167 172.25 297.458C172.625 301.375 174.333 305.958 183.458 305.958C192.583 305.958 194.375 301.417 194.667 297.375C203.167 296 211.375 293.042 218.792 288.708C219.042 288.583 219.208 288.458 219.417 288.333C221.07 287.399 222.785 286.248 224.348 285.12C224.819 284.781 225.12 284.255 225.184 283.678L225.25 283.083L225.458 281.125C225.5 280.875 225.5 280.667 225.542 280.375C225.875 276.167 225.792 270.417 221.875 266.083ZM188.542 294.625C188.542 299.042 188.542 299.708 183.417 299.708C178.292 299.708 178.292 298.917 178.292 294.667V289.417H188.542V294.625ZM171.125 260.208V260.042C171.125 252.958 171.125 250.333 180.833 250.333H187.167C196.875 250.333 196.875 253 196.875 260.042V260.25H171.125V260.208Z" fill="#155728"/>
<path d="M220.973 294.226C222.446 293.525 224.143 294.692 223.996 296.317L222.5 312.792C221.625 321.125 218.208 329.625 199.875 329.625H168.125C149.792 329.625 146.375 321.125 145.5 312.833L144.08 297.217C143.934 295.611 145.593 294.445 147.062 295.109C151.809 297.257 160.572 301.068 165.986 302.486C166.67 302.665 167.224 303.155 167.524 303.796C170.053 309.205 175.538 312.083 183.458 312.083C191.3 312.083 196.855 309.094 199.392 303.672C199.692 303.031 200.247 302.541 200.932 302.361C206.68 300.848 216.007 296.588 220.973 294.226Z" fill="#155728"/>
<path d="M369.715 80.4973L358.268 107.145H346.82C344.92 107.145 343.068 107.287 341.263 107.667L346.013 96.2673L346.203 95.8398L346.488 95.0798C346.63 94.7473 346.725 94.4623 346.868 94.2248C352.378 81.4473 358.553 77.4573 369.715 80.4973Z" fill="#155728"/>
<path d="M401.967 108.428L401.872 108.38C399.022 107.573 396.125 107.145 393.18 107.145H363.445L374.132 82.3026L374.275 81.9701C374.94 82.2076 375.652 82.5401 376.365 82.7776L386.862 87.1951C392.705 89.6176 396.79 92.1351 399.307 95.1751C399.735 95.7451 400.115 96.2676 400.495 96.8851C400.922 97.5501 401.255 98.2151 401.445 98.9276C401.635 99.3551 401.777 99.7351 401.872 100.163C402.585 102.585 402.632 105.34 401.967 108.428Z" fill="#155728"/>
<path d="M399.877 115.22C397.74 114.602 395.507 114.27 393.18 114.27H346.82C343.59 114.27 340.55 114.887 337.7 116.122C329.435 119.685 323.64 127.902 323.64 137.45V146.712C323.64 147.852 323.735 148.945 323.877 150.085C324.922 165.19 332.997 173.265 348.102 174.262C349.195 174.405 350.287 174.5 351.475 174.5H388.525C406.1 174.5 415.362 166.14 416.265 149.515C416.312 148.612 416.36 147.662 416.36 146.712V137.45C416.36 126.952 409.377 118.117 399.877 115.22Z" fill="#155728"/>
<path d="M350 157V152.869L360.435 132.889H350.01V127H367V131.131L356.565 151.111H366.99V157H350Z" fill="white"/>
<path d="M370.175 157V127H375.366V139.686H375.65L382.75 127H388.864L381.25 140.389L389 157H382.791L377.443 145.208L375.366 148.87V157H370.175Z" fill="white"/>
<defs>
<linearGradient id="paint0_linear_304_8142" x1="100" y1="400.5" x2="100" y2="7" gradientUnits="userSpaceOnUse">
<stop stop-color="#0EC642" stop-opacity="0.1"/>
<stop offset="0.48" stop-color="#0EC642"/>
<stop offset="1" stop-color="#0EC742" stop-opacity="0.1"/>
</linearGradient>
<linearGradient id="paint1_linear_304_8142" x1="200" y1="400.5" x2="200" y2="7" gradientUnits="userSpaceOnUse">
<stop stop-color="#0EC642" stop-opacity="0.1"/>
<stop offset="0.48" stop-color="#0EC642"/>
<stop offset="1" stop-color="#0EC742" stop-opacity="0.1"/>
</linearGradient>
<linearGradient id="paint2_linear_304_8142" x1="300" y1="400.5" x2="300" y2="7" gradientUnits="userSpaceOnUse">
<stop stop-color="#0EC642" stop-opacity="0.1"/>
<stop offset="0.48" stop-color="#0EC642"/>
<stop offset="1" stop-color="#0EC742" stop-opacity="0.1"/>
</linearGradient>
<linearGradient id="paint3_linear_304_8142" x1="400" y1="400.5" x2="400" y2="7" gradientUnits="userSpaceOnUse">
<stop stop-color="#0EC642" stop-opacity="0.1"/>
<stop offset="0.48" stop-color="#0EC642"/>
<stop offset="1" stop-color="#0EC742" stop-opacity="0.1"/>
</linearGradient>
<linearGradient id="paint4_linear_304_8142" x1="500" y1="400.5" x2="500" y2="7" gradientUnits="userSpaceOnUse">
<stop stop-color="#0EC642" stop-opacity="0.1"/>
<stop offset="0.48" stop-color="#0EC642"/>
<stop offset="1" stop-color="#0EC742" stop-opacity="0.1"/>
</linearGradient>
<linearGradient id="paint5_linear_304_8142" x1="0" y1="107.5" x2="713" y2="107.5" gradientUnits="userSpaceOnUse">
<stop stop-color="#0EC642" stop-opacity="0.1"/>
<stop offset="0.465" stop-color="#0EC742"/>
<stop offset="0.95" stop-color="#0EC742" stop-opacity="0.1"/>
</linearGradient>
<linearGradient id="paint6_linear_304_8142" x1="0" y1="207.5" x2="713" y2="207.5" gradientUnits="userSpaceOnUse">
<stop stop-color="#0EC642" stop-opacity="0.1"/>
<stop offset="0.465" stop-color="#0EC742"/>
<stop offset="0.95" stop-color="#0EC742" stop-opacity="0.1"/>
</linearGradient>
<linearGradient id="paint7_linear_304_8142" x1="0" y1="307.5" x2="713" y2="307.5" gradientUnits="userSpaceOnUse">
<stop stop-color="#0EC642" stop-opacity="0.1"/>
<stop offset="0.465" stop-color="#0EC742"/>
<stop offset="0.95" stop-color="#0EC742" stop-opacity="0.1"/>
</linearGradient>
</defs>
</svg>
