<svg width="198" height="45" viewBox="0 0 198 45" fill="none" xmlns="http://www.w3.org/2000/svg">
<g clip-path="url(#clip0_706_1875)">
<path d="M79.2532 15.2535L77.2935 14.2591L71.5607 25.6956L65.8279 14.2591L63.8682 15.2535L71.5607 30.551L79.2532 15.2535ZM97.0349 20.0505L97.0057 19.9043C96.6255 18.7051 95.9821 17.6228 95.0752 16.716C93.8176 15.4583 92.2089 14.6979 90.4539 14.4931H90.3369C90.1028 14.4639 89.869 14.4346 89.6056 14.4346C87.5289 14.4346 85.5986 15.2535 84.1362 16.716C82.6737 18.1785 81.8839 20.1089 81.8839 22.1856C81.8839 24.2331 82.6737 26.1636 84.1362 27.626C85.5986 29.0885 87.5289 29.8782 89.5764 29.9075H89.6934C90.5416 29.8782 91.4191 29.7319 92.2381 29.4103C94.1978 28.7083 95.7188 27.275 96.5963 25.4031C96.7425 25.0521 96.8887 24.7011 97.0057 24.3501L94.8706 23.7651C94.578 24.7595 93.993 25.6371 93.2326 26.3098C92.7061 26.7486 92.1211 27.0996 91.4777 27.3628C88.816 28.3281 85.8618 27.1288 84.6334 24.6133L84.5748 24.4963C84.604 24.5257 84.6334 24.5549 84.6334 24.6133L93.6421 21.279L94.8706 20.8402L96.8009 20.1383L97.0349 20.0505ZM84.0776 22.4196V22.5366L84.0484 22.4196C83.9606 20.0797 85.3646 17.8568 87.6459 17.0086C88.6698 16.6284 89.7226 16.5698 90.7172 16.7746C92.0041 17.067 93.1448 17.769 93.9346 18.7929L84.0776 22.4196ZM112.616 23.3557C112.236 22.7706 111.68 22.2734 110.978 21.9224C109.808 21.279 108.346 21.0158 106.942 20.7525C105.801 20.5477 104.719 20.3429 103.987 19.9919C103.461 19.7579 103.168 19.4655 103.168 18.8805V18.8221C103.168 17.9446 103.929 17.5936 104.192 17.4472C104.923 17.0086 106.006 16.7746 107.117 16.7746C108.229 16.7746 109.281 17.0086 109.983 17.4472C110.247 17.5936 110.802 18.0323 111.007 18.9391L113.142 18.3541C112.967 17.2134 112.236 16.2188 111.095 15.5461C110.013 14.9319 108.609 14.6101 107.117 14.6101C105.596 14.6101 104.192 14.9319 103.11 15.5461C101.94 16.2188 101.121 17.5058 101.121 18.8513C101.121 19.6117 101.296 20.2553 101.706 20.811C102.057 21.279 102.379 21.6592 103.022 21.9516C104.017 22.449 105.304 22.6829 106.561 22.9169C109.662 23.4727 111.124 23.9407 111.124 25.6956C111.066 26.5146 110.364 26.924 110.1 27.0702C109.369 27.4798 108.287 27.7138 107.176 27.7138C106.093 27.7138 105.04 27.4798 104.309 27.0702C104.046 26.924 103.49 26.5438 103.227 25.5786L101.15 26.1344C101.326 27.275 102.028 28.2695 103.227 28.9423C104.28 29.5565 105.684 29.9075 107.176 29.9075C108.697 29.9075 110.1 29.5565 111.183 28.9423C112.557 28.1818 113.289 27.0118 113.289 25.6371V25.6078C113.289 24.7303 113.055 23.9699 112.616 23.3557ZM118.091 29.2639L118.12 29.9367L120.255 29.4687V16.3066L118.091 15.8094V29.2639ZM120.723 9.90101C120.723 9.08203 120.05 8.4093 119.202 8.4093C118.354 8.4093 117.681 9.08203 117.681 9.90101C117.681 10.7492 118.354 11.422 119.202 11.422C120.05 11.422 120.723 10.7492 120.723 9.90101Z" fill="#3BB75E"/>
<path d="M137.72 23.7671C137.047 26.0194 134.942 27.6573 132.485 27.6573C129.472 27.6573 127.015 25.2003 127.015 22.1876C127.015 19.1751 129.472 16.718 132.485 16.718C134.912 16.718 136.989 18.3268 137.691 20.5205L139.826 19.9355C139.475 18.7655 138.832 17.654 137.925 16.7474C136.462 15.3141 134.532 14.4951 132.485 14.4951C130.437 14.4951 128.507 15.3141 127.073 16.7474C125.611 18.2098 124.821 20.1403 124.821 22.1876C124.821 24.2351 125.611 26.1656 127.073 27.5988C128.507 29.0613 130.437 29.851 132.485 29.851C134.532 29.851 136.462 29.0613 137.925 27.5988C138.832 26.692 139.504 25.5806 139.855 24.3521L137.72 23.7671ZM157.33 14.6999V17.2154L156.891 16.718C155.428 15.2556 153.469 14.4659 151.422 14.4659C149.345 14.4659 147.414 15.2556 145.952 16.718C144.49 18.1805 143.7 20.1109 143.7 22.1876C143.7 24.2351 144.49 26.1948 145.952 27.6573C147.414 29.0905 149.345 29.9095 151.422 29.9095C153.469 29.9095 155.428 29.0905 156.891 27.6573L157.33 27.16V30.085L159.553 29.7925V15.2849L157.33 14.6999ZM151.422 27.6865C148.38 27.6865 145.923 25.2003 145.923 22.1876C145.923 19.1457 148.38 16.6888 151.422 16.6888C154.435 16.6888 156.921 19.1457 156.921 22.1876C156.921 25.2003 154.435 27.6865 151.422 27.6865ZM176.284 23.3577C175.903 22.7726 175.348 22.2754 174.646 21.9244C173.476 21.281 172.013 21.0178 170.61 20.7545C169.469 20.5497 168.387 20.345 167.655 19.9939C167.129 19.7599 166.837 19.4675 166.837 18.8825V18.8241C166.837 17.9466 167.597 17.5956 167.861 17.4492C168.591 17.0106 169.673 16.7766 170.785 16.7766C171.896 16.7766 172.95 17.0106 173.651 17.4492C173.915 17.5956 174.47 18.0343 174.675 18.9411L176.81 18.3561C176.635 17.2154 175.903 16.2208 174.762 15.5481C173.68 14.9339 172.276 14.6121 170.785 14.6121C169.263 14.6121 167.861 14.9339 166.777 15.5481C165.607 16.2208 164.789 17.5078 164.789 18.8533C164.789 19.6137 164.964 20.2573 165.374 20.813C165.724 21.281 166.047 21.6612 166.691 21.9536C167.684 22.451 168.971 22.6849 170.23 22.9189C173.329 23.4747 174.793 23.9427 174.793 25.6976C174.733 26.5166 174.032 26.926 173.769 27.0722C173.037 27.4818 171.955 27.7158 170.843 27.7158C169.761 27.7158 168.708 27.4818 167.976 27.0722C167.713 26.926 167.158 26.5458 166.894 25.5806L164.818 26.1364C164.994 27.277 165.695 28.2715 166.894 28.9443C167.947 29.5585 169.352 29.9095 170.843 29.9095C172.364 29.9095 173.769 29.5585 174.85 28.9443C176.226 28.1838 176.956 27.0138 176.956 25.6391V25.6098C176.956 24.7323 176.722 23.9719 176.284 23.3577ZM183.631 22.0414C183.747 19.0873 185.591 17.0106 188.573 17.0106C191.527 17.0106 193.37 19.1165 193.487 22.0414V30.1435L195.769 29.851V22.2754C195.769 20.1987 194.98 18.2391 193.516 16.7766C192.025 15.3141 190.65 14.7584 188.573 14.7584C186.263 14.7584 183.747 16.5134 183.631 16.6304V7.91406L181.349 8.49905V29.851L183.631 30.1435V22.0414Z" fill="#043B56"/>
<path d="M52.6442 14.3989C46.8621 12.6568 41.997 13.7289 38.8181 19.1444C36.7364 22.6931 37.1735 27.6275 40.62 31.0971L38.603 33.9275C35.8059 31.597 33.9341 26.3771 35.299 21.649C36.8319 16.3462 41.1726 13.1084 45.7876 12.6862C49.0782 12.3847 52.1924 13.2679 52.6442 14.3989Z" fill="#043B56"/>
<path d="M58.4249 3.44161C58.3 3.55015 58.3 3.53139 58.1926 3.51531C57.9901 3.4784 57.7939 3.41299 57.6098 3.32101C54.4462 1.88723 51.1161 1.15292 47.6625 1.32042C39.0338 1.73581 32.4084 5.58559 28.0577 13.1377C26.1551 16.4396 25.1809 20.1926 25.2379 24.0009C25.2808 29.2081 26.676 34.1635 30.0034 38.2503C30.9434 39.4068 31.972 40.6181 33.1617 41.5923C32.3842 42.8478 31.8001 43.5486 30.8212 44.8819C28.6593 41.264 25.8529 38.3482 24.3557 34.5828C22.7872 30.7037 22.2091 26.4966 22.6731 22.3395C23.1389 17.7634 24.9044 13.4152 27.7624 9.80654C31.4509 5.10453 36.2112 2.08554 42.1046 0.867504C43.8651 0.501688 45.6497 0.249772 47.4435 0.311411C51.0276 0.434689 54.4798 1.18642 57.7011 2.81986C57.9831 2.96323 58.4249 3.30359 58.4249 3.44161Z" fill="#043B56"/>
<path d="M54.9706 10.8416C55.7737 11.5589 54.4594 10.9114 54.4594 10.9114C52.0448 9.79133 49.3771 9.33472 46.7291 9.58824C43.9751 9.81314 41.3455 10.8361 39.1597 12.5329C36.4762 14.6057 34.7003 17.291 33.9081 20.5931C32.8735 24.9079 33.7047 28.8586 36.2929 32.4481C36.839 33.2058 37.5229 33.8371 38.1934 34.5975C37.4332 35.5728 36.8939 36.5843 36.1243 37.4266C30.4284 32.4562 28.4222 22.4697 34.1931 14.9079C39.7512 7.63098 49.5129 7.00362 54.9706 10.8416Z" fill="#043B56"/>
<path d="M50.3098 17.6237C51.3348 18.6483 49.8611 17.9568 49.5168 17.9194C47.8876 17.7388 46.3215 17.8231 44.8129 18.6509C42.0811 20.1529 40.7133 23.9379 42.4669 26.9367C42.6224 27.2041 42.7953 27.4582 42.9949 27.7712L41.0066 30.5799C39.644 29.0039 38.9124 26.9809 38.9528 24.8994C38.9931 22.8178 39.8024 20.8245 41.2251 19.3022C43.6889 16.6153 47.9037 16.0041 50.3098 17.6237Z" fill="#043B56"/>
<path d="M56.7527 7.11422C57.6281 7.97829 56.3504 7.24818 56.1439 7.14637C53.2287 5.78915 50.0141 5.20109 46.8069 5.43832C43.0152 5.71831 39.5668 7.00436 36.5648 9.34875C33.1674 12.0012 30.8909 15.428 29.9147 19.6345C28.5606 25.4566 29.7431 30.7348 33.4946 35.4236C34.1864 36.2891 34.9828 37.0445 35.8529 37.8591C35.1101 38.8919 34.4291 39.8297 33.7452 40.7741C26.1204 34.3277 23.7192 21.6307 31.0342 12.2718C38.1134 3.21586 50.0114 2.69339 56.7527 7.11422Z" fill="#043B56"/>
<path d="M15.2235 15.6749C16.9467 18.1727 18.6593 20.6786 20.4002 23.1643C20.7576 23.629 20.9397 24.2039 20.9145 24.7888C20.827 26.7555 21.064 28.7019 21.4531 30.6336L21.2565 30.7342C14.2123 20.5566 7.17212 10.3789 0 0.0107317C1.45543 0.0107317 2.70082 0.032195 3.94487 0" fill="#3BB75E"/>
<path d="M22.0485 9.40812L24.0401 12.3088C23.3798 13.5454 22.8789 14.8209 22.2843 16.28C18.5421 10.8283 14.8817 5.49588 11.1074 0C12.6262 0 13.9575 0 15.2876 0" fill="#3BB75E"/>
<path d="M26.6259 8.19905C25.3712 9.84929 25.1918 10.2829 24.418 11.4112L16.584 0.0120456C18.0662 0.0120456 19.3408 0.0388136 20.6114 0" fill="#3BB75E"/>
<path d="M26.7329 0.15271C27.3307 0.978812 27.8051 1.55063 28.3076 2.28658C28.8692 3.10461 29.4215 3.92936 29.9737 4.7474C28.9631 5.50084 28.1951 6.42516 27.261 7.30374L22.3662 0.170201" fill="#3BB75E"/>
<path d="M17.6672 11.3566C18.9289 13.2038 20.1745 15.0617 21.4562 16.8929C21.7339 17.295 21.8354 17.6032 21.6911 18.1113C21.3041 19.4879 20.997 20.8888 20.7219 22.366L5.47656 0.0765262C6.95718 -0.0575215 8.31362 0.0255882 9.66474 0.0242476" fill="#3BB75E"/>
</g>
<defs>
<clipPath id="clip0_706_1875">
<rect width="197.794" height="44.8841" fill="white"/>
</clipPath>
</defs>
</svg>
