<svg width="24" height="24" viewBox="0 0 24 24" fill="none" xmlns="http://www.w3.org/2000/svg">
<g clip-path="url(#clip0_706_2024)">
<rect width="24" height="24" rx="12" fill="white"/>
<g clip-path="url(#clip1_706_2024)">
<path d="M-8.43262 21.1506C-8.43262 22.724 -7.07081 23.9996 -5.39083 23.9996H29.141C30.8209 23.9996 32.1828 22.7241 32.1828 21.1506V15.6919H-8.43262V21.1506Z" fill="#006600"/>
<path d="M29.4135 -0.000244141L-5.66339 -0.000244141C-7.34337 -0.000244141 -8.43262 2.1983 -8.43262 3.77179V9.23053H32.1828V3.77179C32.1828 2.1983 31.0935 -0.000244141 29.4135 -0.000244141Z" fill="black"/>
<path d="M-8.43262 7.94702H32.1828V16.817H-8.43262V7.94702Z" fill="#BC0000"/>
<path d="M-8.43262 7.48047H32.1828V8.88106H-8.43262V7.48047ZM-8.43262 15.884H32.1828V17.2846H-8.43262V15.884Z" fill="white"/>
<path d="M15.6255 6.48177C16.1893 5.31901 16.7777 2.62549 16.7777 2.62549C16.7777 2.62549 15.0268 4.75513 14.4628 5.91781C14.3446 6.16151 14.3947 6.44179 14.5654 6.63139L8.14258 19.8744L8.57856 20.0859L15.0014 6.84288C15.2562 6.85962 15.5074 6.72547 15.6255 6.48177Z" fill="white"/>
<path d="M8.12586 6.48177C7.562 5.31901 6.97363 2.62549 6.97363 2.62549C6.97363 2.62549 8.72454 4.75513 9.28847 5.91781C9.40667 6.16151 9.35653 6.44179 9.18582 6.63139L15.6088 19.8744L15.1728 20.0859L8.74984 6.84288C8.49512 6.85962 8.24397 6.72547 8.12586 6.48177Z" fill="white"/>
<path d="M15.3767 12.3832C15.3767 16.2509 12.52 19.3862 11.8754 19.3862C11.2307 19.3862 8.37402 16.2509 8.37402 12.3832C8.37402 8.51545 11.2307 5.38013 11.8754 5.38013C12.52 5.38013 15.3767 8.51545 15.3767 12.3832Z" fill="#BC0000"/>
<path d="M14.6764 15.7603C15.0888 14.7582 15.3767 13.6072 15.3767 12.3815C15.3767 11.1557 15.0889 10.0048 14.6764 9.00269C14.264 10.0047 13.9761 11.1557 13.9761 12.3815C13.9761 13.6072 14.264 14.7582 14.6764 15.7603ZM9.07432 9.00269C8.6619 10.0047 8.37402 11.1557 8.37402 12.3815C8.37402 13.6071 8.66182 14.7582 9.07432 15.7603C9.48674 14.7582 9.77462 13.6072 9.77462 12.3815C9.77462 11.1557 9.48674 10.0048 9.07432 9.00269Z" fill="black"/>
<path d="M11.8751 13.4326C12.2619 13.4326 12.5754 12.9623 12.5754 12.3822C12.5754 11.8021 12.2619 11.3318 11.8751 11.3318C11.4883 11.3318 11.1748 11.8021 11.1748 12.3822C11.1748 12.9623 11.4883 13.4326 11.8751 13.4326Z" fill="white"/>
<path d="M11.9809 5.38013V11.3327C12.1718 10.9352 12.5104 9.76071 12.5104 8.35639C12.5104 6.95199 12.1718 5.77758 11.9809 5.38013ZM11.7708 5.38013C11.5799 5.77758 11.2412 6.95199 11.2412 8.35639C11.2412 9.76079 11.5799 10.9353 11.7708 11.3327V5.38013ZM11.9809 13.4336V19.3861C12.1718 18.9887 12.5104 17.8142 12.5104 16.4098C12.5104 15.0054 12.1718 13.831 11.9809 13.4336ZM11.7708 13.4336C11.5799 13.831 11.2412 15.0054 11.2412 16.4098C11.2412 17.8142 11.5799 18.9887 11.7708 19.3861V13.4336Z" fill="white"/>
</g>
</g>
<defs>
<clipPath id="clip0_706_2024">
<rect width="24" height="24" rx="12" fill="white"/>
</clipPath>
<clipPath id="clip1_706_2024">
<rect width="40.6154" height="24" fill="white" transform="translate(-8.43262 -0.000244141)"/>
</clipPath>
</defs>
</svg>
