<svg width="24" height="24" viewBox="0 0 24 24" fill="none" xmlns="http://www.w3.org/2000/svg">
<g clip-path="url(#clip0_706_1943)">
<rect width="24" height="24" rx="12" fill="white"/>
<g clip-path="url(#clip1_706_1943)">
<path d="M27.755 0L-4.31025 0C-5.87023 0 -7.13477 1.31596 -7.13477 2.9394V8.57143H30.5795V2.9394C30.5795 1.31596 29.315 0 27.755 0Z" fill="#CE2029"/>
<path d="M-7.13477 21.0598C-7.13477 22.6831 -5.87023 23.9992 -4.31025 23.9992H27.755C29.3149 23.9992 30.5795 22.6832 30.5795 21.0598V15.4277H-7.13477V21.0598Z" fill="#016C40"/>
<path d="M-7.13477 7.27026H30.5795V16.255H-7.13477V7.27026Z" fill="#FAD115"/>
<path d="M11.9971 8.38137L12.6757 10.6011L14.8205 10.6192C15.0982 10.6216 15.2134 11.0082 14.99 11.1882L13.2646 12.5782L13.9116 14.8091C13.9953 15.0979 13.6939 15.3369 13.4679 15.1607L11.7229 13.7999L9.97787 15.1605C9.75202 15.3368 9.45053 15.0978 9.53421 14.809L10.1812 12.578L8.45574 11.188C8.2324 11.0081 8.34746 10.6215 8.62524 10.6191L10.7701 10.6009L11.4487 8.38121C11.5366 8.09393 11.9092 8.09393 11.9971 8.38137Z" fill="black"/>
</g>
</g>
<defs>
<clipPath id="clip0_706_1943">
<rect width="24" height="24" rx="12" fill="white"/>
</clipPath>
<clipPath id="clip1_706_1943">
<rect width="37.7143" height="24" fill="white" transform="translate(-7.13477)"/>
</clipPath>
</defs>
</svg>
