<svg width="24" height="24" viewBox="0 0 24 24" fill="none" xmlns="http://www.w3.org/2000/svg">
<g clip-path="url(#clip0_706_1957)">
<rect width="24" height="24" rx="12" fill="white"/>
<g clip-path="url(#clip1_706_1957)">
<rect width="40.6154" height="24" rx="1.84615" fill="white"/>
<rect width="40.6154" height="24" rx="1.84615" fill="white"/>
<path d="M16.6152 0L38.7691 0C39.7887 0 40.6152 0.826551 40.6152 1.84615L16.6152 1.84615V0Z" fill="#B33639"/>
<rect x="16.6152" y="3.69238" width="24" height="1.84615" fill="#B33639"/>
<rect x="16.6152" y="7.38452" width="24" height="1.84615" fill="#B33639"/>
<rect x="16.6152" y="11.0767" width="24" height="1.84615" fill="#B33639"/>
<rect y="14.7695" width="40.6154" height="1.84615" fill="#B33639"/>
<rect y="18.4614" width="40.6154" height="1.84615" fill="#B33639"/>
<path d="M0 22.1538H40.6154C40.6154 23.1734 39.7888 24 38.7692 24H1.84615C0.826552 24 0 23.1734 0 22.1538Z" fill="#B33639"/>
<path d="M0 1.84616C0 0.826553 0.826551 0 1.84615 0L16.6154 0V12.9231H0L0 1.84616Z" fill="#001B7A"/>
<path d="M2.0305 0.737793L2.30434 1.36202L2.95358 1.44296L2.47358 1.90969L2.60099 2.58395L2.0305 2.24818L1.46001 2.58395L1.58742 1.90969L1.10742 1.44296L1.75666 1.36202L2.0305 0.737793Z" fill="white"/>
<path d="M5.35276 0.737793L5.6266 1.36202L6.27584 1.44296L5.79584 1.90969L5.92326 2.58395L5.35276 2.24818L4.78227 2.58395L4.90969 1.90969L4.42969 1.44296L5.07893 1.36202L5.35276 0.737793Z" fill="white"/>
<path d="M8.67601 0.737793L8.94984 1.36202L9.59908 1.44296L9.11908 1.90969L9.2465 2.58395L8.67601 2.24818L8.10551 2.58395L8.23293 1.90969L7.75293 1.44296L8.40217 1.36202L8.67601 0.737793Z" fill="white"/>
<path d="M12.0002 0.737793L12.2741 1.36202L12.9233 1.44296L12.4433 1.90969L12.5707 2.58395L12.0002 2.24818L11.4297 2.58395L11.5571 1.90969L11.0771 1.44296L11.7264 1.36202L12.0002 0.737793Z" fill="white"/>
<path d="M15.3225 0.737793L15.5963 1.36202L16.2456 1.44296L15.7656 1.90969L15.893 2.58395L15.3225 2.24818L14.752 2.58395L14.8794 1.90969L14.3994 1.44296L15.0487 1.36202L15.3225 0.737793Z" fill="white"/>
<path d="M1.84593 3.87646L2.11977 4.50069L2.76901 4.58163L2.28901 5.04837L2.41642 5.72262L1.84593 5.38685L1.27544 5.72262L1.40285 5.04837L0.922852 4.58163L1.57209 4.50069L1.84593 3.87646Z" fill="white"/>
<path d="M5.16819 3.87671L5.44203 4.50094L6.09127 4.58188L5.61127 5.04861L5.73869 5.72286L5.16819 5.38709L4.5977 5.72286L4.72512 5.04861L4.24512 4.58188L4.89436 4.50094L5.16819 3.87671Z" fill="white"/>
<path d="M8.49241 3.87646L8.76625 4.50069L9.41549 4.58163L8.93549 5.04837L9.06291 5.72262L8.49241 5.38685L7.92192 5.72262L8.04934 5.04837L7.56934 4.58163L8.21858 4.50069L8.49241 3.87646Z" fill="white"/>
<path d="M11.8157 3.87646L12.0895 4.50069L12.7387 4.58163L12.2587 5.04837L12.3861 5.72262L11.8157 5.38685L11.2452 5.72262L11.3726 5.04837L10.8926 4.58163L11.5418 4.50069L11.8157 3.87646Z" fill="white"/>
<path d="M14.7678 3.87671L15.0416 4.50094L15.6909 4.58188L15.2109 5.04861L15.3383 5.72286L14.7678 5.38709L14.1973 5.72286L14.3247 5.04861L13.8447 4.58188L14.494 4.50094L14.7678 3.87671Z" fill="white"/>
<path d="M1.84593 10.1533L2.11977 10.7775L2.76901 10.8585L2.28901 11.3252L2.41642 11.9995L1.84593 11.6637L1.27544 11.9995L1.40285 11.3252L0.922852 10.8585L1.57209 10.7775L1.84593 10.1533Z" fill="white"/>
<path d="M5.16819 10.1533L5.44203 10.7775L6.09127 10.8585L5.61127 11.3252L5.73869 11.9995L5.16819 11.6637L4.5977 11.9995L4.72512 11.3252L4.24512 10.8585L4.89436 10.7775L5.16819 10.1533Z" fill="white"/>
<path d="M8.49241 10.1533L8.76625 10.7775L9.41549 10.8585L8.93549 11.3252L9.06291 11.9995L8.49241 11.6637L7.92192 11.9995L8.04934 11.3252L7.56934 10.8585L8.21858 10.7775L8.49241 10.1533Z" fill="white"/>
<path d="M11.8157 10.1533L12.0895 10.7775L12.7387 10.8585L12.2587 11.3252L12.3861 11.9995L11.8157 11.6637L11.2452 11.9995L11.3726 11.3252L10.8926 10.8585L11.5418 10.7775L11.8157 10.1533Z" fill="white"/>
<path d="M14.7678 10.1533L15.0416 10.7775L15.6909 10.8585L15.2109 11.3252L15.3383 11.9995L14.7678 11.6637L14.1973 11.9995L14.3247 11.3252L13.8447 10.8585L14.494 10.7775L14.7678 10.1533Z" fill="white"/>
<path d="M2.0305 7.01465L2.30434 7.63888L2.95358 7.71982L2.47358 8.18655L2.60099 8.8608L2.0305 8.52503L1.46001 8.8608L1.58742 8.18655L1.10742 7.71982L1.75666 7.63888L2.0305 7.01465Z" fill="white"/>
<path d="M5.35276 7.01465L5.6266 7.63888L6.27584 7.71982L5.79584 8.18655L5.92326 8.8608L5.35276 8.52503L4.78227 8.8608L4.90969 8.18655L4.42969 7.71982L5.07893 7.63888L5.35276 7.01465Z" fill="white"/>
<path d="M8.67601 7.01465L8.94984 7.63888L9.59908 7.71982L9.11908 8.18655L9.2465 8.8608L8.67601 8.52503L8.10551 8.8608L8.23293 8.18655L7.75293 7.71982L8.40217 7.63888L8.67601 7.01465Z" fill="white"/>
<path d="M12.0002 7.01465L12.2741 7.63888L12.9233 7.71982L12.4433 8.18655L12.5707 8.8608L12.0002 8.52503L11.4297 8.8608L11.5571 8.18655L11.0771 7.71982L11.7264 7.63888L12.0002 7.01465Z" fill="white"/>
<path d="M14.9534 7.01465L15.2272 7.63888L15.8764 7.71982L15.3964 8.18655L15.5238 8.8608L14.9534 8.52503L14.3829 8.8608L14.5103 8.18655L14.0303 7.71982L14.6795 7.63888L14.9534 7.01465Z" fill="white"/>
</g>
</g>
<defs>
<clipPath id="clip0_706_1957">
<rect width="24" height="24" rx="12" fill="white"/>
</clipPath>
<clipPath id="clip1_706_1957">
<rect width="40.6154" height="24" fill="white"/>
</clipPath>
</defs>
</svg>
