<svg width="24" height="24" viewBox="0 0 24 24" fill="none" xmlns="http://www.w3.org/2000/svg">
<g clip-path="url(#clip0_706_1997)">
<rect width="24" height="24" rx="12" fill="white"/>
<g clip-path="url(#clip1_706_1997)">
<path d="M32.1829 0L-8.43262 0V23.9998H32.1829V0Z" fill="#F0F0F0"/>
<path d="M14.4136 0L9.33665 0V9.74976H-8.43262V14.2497H9.33665V23.9994H14.4136V14.2497H32.1829V9.74976H14.4136V0Z" fill="#D80027"/>
<path d="M22.8057 16.1714L32.1833 20.7891V16.1714H22.8057Z" fill="#0052B4"/>
<path d="M16.29 16.1716L32.1831 23.9975V21.7846L20.7843 16.1716H16.29Z" fill="#0052B4"/>
<path d="M27.9497 23.9975L16.29 18.2556V23.9975H27.9497Z" fill="#0052B4"/>
<path d="M16.29 16.1736L32.1831 23.9995V21.7865L20.7843 16.1736H16.29Z" fill="#F0F0F0"/>
<path d="M16.29 16.1736L32.1831 23.9995V21.7865L20.7843 16.1736H16.29Z" fill="#D80027"/>
<path d="M7.45977 17.1675V23.9983H-6.41113L7.45977 17.1675Z" fill="#0052B4"/>
<path d="M2.96613 16.1736L-8.43262 21.7865V23.9995L7.46041 16.1736H2.96613Z" fill="#D80027"/>
<path d="M0.945037 7.82503L-8.43262 3.20728V7.82503H0.945037Z" fill="#0052B4"/>
<path d="M7.46041 7.82591L-8.43262 0V2.21297L2.96613 7.82591H7.46041Z" fill="#0052B4"/>
<path d="M-4.19824 0L7.46142 5.74189V0L-4.19824 0Z" fill="#0052B4"/>
<path d="M7.46041 7.82591L-8.43262 0V2.21297L2.96613 7.82591H7.46041Z" fill="#F0F0F0"/>
<path d="M7.46041 7.82591L-8.43262 0V2.21297L2.96613 7.82591H7.46041Z" fill="#D80027"/>
<path d="M16.29 6.8308V0L30.1609 0L16.29 6.8308Z" fill="#0052B4"/>
<path d="M20.7843 7.82591L32.1831 2.21297V0L16.29 7.82591H20.7843Z" fill="#D80027"/>
</g>
</g>
<defs>
<clipPath id="clip0_706_1997">
<rect width="24" height="24" rx="12" fill="white"/>
</clipPath>
<clipPath id="clip1_706_1997">
<rect width="40.6154" height="24" fill="white" transform="translate(-8.43262)"/>
</clipPath>
</defs>
</svg>
