<svg width="18" height="18" viewBox="0 0 18 18" fill="none" xmlns="http://www.w3.org/2000/svg">
<g clip-path="url(#clip0_706_1903)">
<path d="M9.00005 0.0373535C4.02951 0.0373535 0 4.06687 0 9.03741C0 13.4954 3.2447 17.1874 7.49902 17.9023V10.9151H5.32795V8.40064H7.49902V6.54661C7.49902 4.39539 8.81292 3.22311 10.7322 3.22311C11.6515 3.22311 12.4414 3.2916 12.6708 3.32177V5.57036L11.3396 5.57101C10.296 5.57101 10.0948 6.06681 10.0948 6.79461V8.39935H12.5849L12.2601 10.9138H10.0948V17.9624C14.5478 17.4205 18 13.6344 18 9.03483C18 4.06687 13.9705 0.0373535 9.00005 0.0373535Z" fill="#011A27"/>
</g>
<defs>
<clipPath id="clip0_706_1903">
<rect width="18" height="18" fill="white"/>
</clipPath>
</defs>
</svg>
