<svg width="18" height="18" viewBox="0 0 18 18" fill="none" xmlns="http://www.w3.org/2000/svg">
<path d="M13.4997 0H4.49989C2.02517 0 0 2.02517 0 4.49989V13.5001C0 15.9742 2.02517 18 4.49989 18H13.4997C15.9744 18 17.9996 15.9742 17.9996 13.5001V4.49989C17.9996 2.02517 15.9744 0 13.4997 0ZM16.4995 13.5001C16.4995 15.1538 15.1543 16.5 13.4997 16.5H4.49989C2.84596 16.5 1.50004 15.1538 1.50004 13.5001V4.49989C1.50004 2.84574 2.84596 1.50004 4.49989 1.50004H13.4997C15.1543 1.50004 16.4995 2.84574 16.4995 4.49989V13.5001Z" fill="#011A27"/>
<path d="M13.875 5.2497C14.4963 5.2497 14.9999 4.74603 14.9999 4.12473C14.9999 3.50342 14.4963 2.99976 13.875 2.99976C13.2537 2.99976 12.75 3.50342 12.75 4.12473C12.75 4.74603 13.2537 5.2497 13.875 5.2497Z" fill="#011A27"/>
<path d="M8.99989 4.5C6.51414 4.5 4.5 6.51436 4.5 8.99989C4.5 11.4845 6.51414 13.5002 8.99989 13.5002C11.4849 13.5002 13.4998 11.4845 13.4998 8.99989C13.4998 6.51436 11.4849 4.5 8.99989 4.5ZM8.99989 12.0002C7.34324 12.0002 6.00004 10.657 6.00004 8.99989C6.00004 7.3428 7.34324 6.00004 8.99989 6.00004C10.6565 6.00004 11.9997 7.3428 11.9997 8.99989C11.9997 10.657 10.6565 12.0002 8.99989 12.0002Z" fill="#011A27"/>
</svg>
