<svg width="39" height="38" viewBox="0 0 39 38" fill="none" xmlns="http://www.w3.org/2000/svg">
<path d="M9.83333 30.0833C8.95888 30.0833 8.25 29.3744 8.25 28.5L8.25 14.25C8.25 13.3755 8.95888 12.6666 9.83333 12.6666C10.7078 12.6666 11.4167 13.3755 11.4167 14.25L11.4167 28.5C11.4167 29.3744 10.7078 30.0833 9.83333 30.0833Z" fill="#B3E4FB"/>
<path d="M19.3333 30.0833C18.4589 30.0833 17.75 29.3744 17.75 28.5L17.75 14.25C17.75 13.3755 18.4589 12.6666 19.3333 12.6666C20.2078 12.6666 20.9167 13.3755 20.9167 14.25L20.9167 28.5C20.9167 29.3744 20.2078 30.0833 19.3333 30.0833Z" fill="#B3E4FB"/>
<path d="M28.8333 30.0833C27.9589 30.0833 27.25 29.3744 27.25 28.5L27.25 14.25C27.25 13.3755 27.9589 12.6666 28.8333 12.6666C29.7078 12.6666 30.4167 13.3755 30.4167 14.25L30.4167 28.5C30.4167 29.3744 29.7078 30.0833 28.8333 30.0833Z" fill="#B3E4FB"/>
<path d="M18.2886 5.00724C18.9464 4.66425 19.7206 4.66425 20.3784 5.00724L32.2884 11.2173C34.4937 12.3672 33.709 15.8333 31.2435 15.8333H7.42353C4.95796 15.8333 4.17333 12.3672 6.3786 11.2173L18.2886 5.00724Z" fill="#043B56"/>
<path d="M6.66699 27.2333C6.66699 26.184 7.51765 25.3333 8.56699 25.3333H30.1003C31.1497 25.3333 32.0003 26.184 32.0003 27.2333C32.0003 27.9329 31.4332 28.5 30.7337 28.5H7.93366C7.2341 28.5 6.66699 27.9329 6.66699 27.2333Z" fill="#B3E4FB"/>
<path d="M5.0835 30.875C5.0835 29.5633 6.14682 28.5 7.4585 28.5H31.2085C32.5202 28.5 33.5835 29.5633 33.5835 30.875C33.5835 32.1867 32.5202 33.25 31.2085 33.25H7.4585C6.14682 33.25 5.0835 32.1867 5.0835 30.875Z" fill="#043B56"/>
</svg>
