<svg width="38" height="38" viewBox="0 0 38 38" fill="none" xmlns="http://www.w3.org/2000/svg">
<path fill-rule="evenodd" clip-rule="evenodd" d="M8.98651 4.23648C7.2376 4.23648 5.81982 5.65426 5.81982 7.40317V29.5699C5.81982 31.3189 7.2376 32.7366 8.98651 32.7366H28.0734C29.7881 32.7366 31.1912 31.3719 31.2389 29.658L31.6579 14.5907C31.664 14.3731 31.5802 14.1627 31.4263 14.0088L26.4033 8.98651L21.746 4.32923C21.6866 4.26984 21.6061 4.23648 21.5221 4.23648H8.98651ZM13.4576 14.1401C14.5507 14.1401 15.4368 13.254 15.4368 12.1609C15.4368 11.0678 14.5507 10.1817 13.4576 10.1817H11.0826C9.98953 10.1817 9.10343 11.0678 9.10343 12.1609C9.10343 13.254 9.98953 14.1401 11.0826 14.1401H13.4576ZM28.1035 24.8276C28.1035 25.9207 27.2174 26.8068 26.1243 26.8068H11.0826C9.98953 26.8068 9.10343 25.9207 9.10343 24.8276C9.10343 23.7346 9.98953 22.8485 11.0826 22.8485H26.1243C27.2174 22.8485 28.1035 23.7346 28.1035 24.8276ZM16.6243 20.4735C17.7174 20.4735 18.6035 19.5874 18.6035 18.4943C18.6035 17.4012 17.7174 16.5151 16.6243 16.5151H11.0826C9.98953 16.5151 9.10343 17.4012 9.10343 18.4943C9.10343 19.5874 9.98953 20.4735 11.0826 20.4735H16.6243Z" fill="#155728"/>
<path d="M21.3761 4.51809C21.376 4.31144 21.6259 4.20798 21.772 4.35416L22.168 4.75043L22.9596 5.5421L24.543 7.12544L26.918 9.50046L31.1273 13.7094C31.3268 13.9089 31.1856 14.25 30.9035 14.25L24.5435 14.2512C22.7944 14.2515 21.3763 12.8337 21.3762 11.0846L21.3761 4.51809Z" fill="#B4E7C3"/>
</svg>
