<svg width="38" height="31" viewBox="0 0 38 31" fill="none" xmlns="http://www.w3.org/2000/svg">
<g clip-path="url(#clip0_2157_1467)">
<path d="M12.0642 5.84019V13.8322C12.0682 14.2562 11.8002 14.6242 11.2562 14.9362C10.8802 15.1562 10.4522 15.2962 9.97624 15.3602C9.78424 15.3362 9.58824 15.3242 9.38424 15.3242C9.16424 15.3242 8.9482 15.3362 8.7482 15.3682C8.2562 15.3042 7.81224 15.1562 7.42024 14.9282L1.64424 11.5962C1.10024 11.2802 0.828219 10.9122 0.824219 10.4882V2.4882C0.828219 2.9122 1.10024 3.28021 1.64424 3.59621L7.42024 6.92819C7.96424 7.24419 8.60424 7.40423 9.34024 7.40423C10.0762 7.40423 10.7162 7.24819 11.2562 6.93619C11.7962 6.62819 12.0642 6.26019 12.0642 5.84019Z" fill="#696F6E" stroke="#E5EDEB" stroke-width="0.55"/>
<path d="M22.7792 9.17188C21.7192 8.55988 20.4392 8.25592 18.9352 8.25192C17.4352 8.25192 16.1552 8.55188 15.1032 9.15988C14.0512 9.76788 13.5272 10.5039 13.5352 11.3719C13.5392 12.2399 14.0712 12.9799 15.1272 13.5879C16.1872 14.1999 17.4672 14.5079 18.9712 14.5119C20.4752 14.5119 21.7512 14.2119 22.8032 13.6039C23.8512 12.9999 24.3752 12.2639 24.3752 11.3999V11.3919C24.3672 10.5239 23.8352 9.78388 22.7792 9.17188Z" fill="#696F6E" stroke="#E5EDEB" stroke-width="0.55"/>
<path d="M12.0642 5.83211V5.84015C12.0642 6.26015 11.7962 6.62811 11.2562 6.93611C10.7162 7.24811 10.0762 7.40415 9.34024 7.40415C8.60424 7.40415 7.96424 7.24411 7.42024 6.92811L1.64424 3.59614C1.10024 3.28014 0.828219 2.91213 0.824219 2.48813C0.824219 2.06413 1.09223 1.69213 1.63223 1.38013C2.17623 1.06813 2.81621 0.912109 3.54821 0.912109C4.2842 0.916109 4.92424 1.07213 5.47224 1.38813L11.2442 4.72011C11.7882 5.03611 12.0642 5.40411 12.0642 5.83211Z" fill="#696F6E" stroke="#E5EDEB" stroke-width="0.55"/>
<path d="M12.1239 16.9081V16.916C12.1239 17.336 11.8559 17.704 11.3159 18.012L5.57989 21.324C5.03589 21.64 4.39993 21.796 3.66392 21.792C2.92792 21.792 2.28792 21.632 1.73992 21.32C1.19592 21.004 0.923922 20.6361 0.919922 20.2081C0.919922 19.7841 1.18791 19.416 1.72791 19.104L7.46793 15.792C7.84393 15.572 8.27189 15.432 8.74789 15.368C8.94789 15.336 9.16393 15.324 9.38393 15.324C9.58793 15.324 9.78389 15.336 9.97589 15.36C10.4679 15.424 10.9119 15.572 11.3039 15.796C11.8479 16.112 12.1239 16.4841 12.1239 16.9081Z" fill="#696F6E" stroke="#E5EDEB" stroke-width="0.55"/>
<path d="M37.0838 20.2761V20.2842C37.0838 20.7042 36.8118 21.0722 36.2758 21.3802C35.7318 21.6922 35.0958 21.8482 34.3598 21.8482C33.6238 21.8482 32.9838 21.6881 32.4358 21.3761L26.6638 18.0402C26.1198 17.7242 25.8438 17.3562 25.8438 16.9322C25.8398 16.5082 26.1118 16.1401 26.6518 15.8241C27.0318 15.6041 27.4558 15.4642 27.9318 15.4002C28.1358 15.3722 28.3478 15.3601 28.5678 15.3601C28.7718 15.3601 28.9678 15.3722 29.1598 15.3962C29.6518 15.4602 30.0958 15.6042 30.4878 15.8322L36.2638 19.1641C36.8078 19.4801 37.0798 19.8521 37.0838 20.2761Z" fill="#696F6E" stroke="#E5EDEB" stroke-width="0.55"/>
<path d="M36.9873 2.55254V2.5605C36.9873 2.9805 36.7152 3.3485 36.1792 3.6605L30.4393 6.9725C29.8993 7.2845 29.2592 7.44054 28.5232 7.44054C27.7872 7.43654 27.1472 7.2805 26.6032 6.9645C26.0592 6.6485 25.7832 6.28054 25.7832 5.85654C25.7792 5.43254 26.0513 5.06054 26.5913 4.74854L32.3272 1.43653C32.8712 1.12453 33.5113 0.968506 34.2433 0.968506C34.9793 0.972506 35.6193 1.12853 36.1673 1.44453C36.7113 1.76053 36.9833 2.12854 36.9873 2.55254Z" fill="#696F6E" stroke="#E5EDEB" stroke-width="0.55"/>
<path d="M36.9872 2.55964V10.5517C36.9912 10.9757 36.7192 11.3436 36.1792 11.6596L30.4392 14.9716C30.0632 15.1916 29.6352 15.3317 29.1592 15.3957C28.9672 15.3717 28.7712 15.3596 28.5672 15.3596C28.3472 15.3596 28.1352 15.3717 27.9312 15.3997C27.4392 15.3357 26.9952 15.1916 26.6032 14.9636C26.0592 14.6476 25.7832 14.2797 25.7832 13.8557V5.85568C25.7832 6.27968 26.0592 6.64764 26.6032 6.96364C27.1472 7.27964 27.7872 7.43568 28.5232 7.43968C29.2592 7.43968 29.8992 7.28364 30.4392 6.97164L36.1792 3.65964C36.7152 3.34764 36.9872 2.97964 36.9872 2.55964Z" fill="#696F6E" stroke="#E5EDEB" stroke-width="0.55"/>
<path d="M37.0837 20.2845V28.2765C37.0877 28.7005 36.8157 29.0685 36.2757 29.3805C35.7317 29.6925 35.0957 29.8485 34.3597 29.8485C33.6237 29.8485 32.9837 29.6885 32.4357 29.3765L26.6637 26.0405C26.1197 25.7245 25.8438 25.3565 25.8438 24.9325V16.9325C25.8438 17.3565 26.1197 17.7245 26.6637 18.0405L32.4357 21.3765C32.9837 21.6885 33.6237 21.8485 34.3597 21.8485C35.0957 21.8485 35.7317 21.6925 36.2757 21.3805C36.8117 21.0725 37.0837 20.7045 37.0837 20.2845Z" fill="#696F6E" stroke="#E5EDEB" stroke-width="0.55"/>
<path d="M24.3752 11.3998V19.3918C24.3752 20.2598 23.8552 20.9958 22.8032 21.6038C21.7512 22.2118 20.4752 22.5118 18.9712 22.5118C17.4672 22.5078 16.1872 22.1998 15.1272 21.5878C14.0712 20.9798 13.5392 20.2398 13.5352 19.3718V11.3718C13.5392 12.2398 14.0712 12.9798 15.1272 13.5878C16.1872 14.1998 17.4672 14.5078 18.9712 14.5118C20.4752 14.5118 21.7512 14.2118 22.8032 13.6038C23.8512 12.9998 24.3752 12.2638 24.3752 11.3998Z" fill="#696F6E" stroke="#E5EDEB" stroke-width="0.55"/>
<path d="M24.375 11.4001V11.3921" stroke="#E5EDEB" stroke-width="0.55"/>
<path d="M12.1239 16.9159V24.908C12.1279 25.332 11.8599 25.6999 11.3159 26.0119L5.57989 29.324C5.03589 29.64 4.39993 29.796 3.66392 29.792C2.92792 29.792 2.28792 29.6319 1.73992 29.3199C1.19592 29.0039 0.923922 28.636 0.919922 28.208V20.208C0.923922 20.636 1.19592 21.0039 1.73992 21.3199C2.28792 21.6319 2.92792 21.792 3.66392 21.792C4.39993 21.796 5.03589 21.64 5.57989 21.324L11.3159 18.0119C11.8559 17.7039 12.1239 17.3359 12.1239 16.9159Z" fill="#696F6E" stroke="#E5EDEB" stroke-width="0.55"/>
</g>
<defs>
<clipPath id="clip0_2157_1467">
<rect width="38" height="30.8" fill="white"/>
</clipPath>
</defs>
</svg>
