<svg width="39" height="38" viewBox="0 0 39 38" fill="none" xmlns="http://www.w3.org/2000/svg">
<g clip-path="url(#clip0_2431_11880)">
<circle cx="19.3335" cy="19" r="9.5" fill="#155728"/>
<mask id="path-2-outside-1_2431_11880" maskUnits="userSpaceOnUse" x="-3.90914" y="-3.93521" width="28.2843" height="28.2843" fill="black">
<rect fill="white" x="-3.90914" y="-3.93521" width="28.2843" height="28.2843"/>
<path fill-rule="evenodd" clip-rule="evenodd" d="M5.96651 4.52425C5.56076 4.52384 5.15489 4.67842 4.84531 4.988C4.51813 5.31518 4.36407 5.74993 4.38314 6.17841L4.3833 12.8938C4.38332 13.7683 5.09222 14.4771 5.96667 14.4771C6.84112 14.4771 7.54998 13.7682 7.54996 12.8937L7.54989 9.93175L12.9889 15.3708C13.6073 15.9891 14.6098 15.9891 15.2281 15.3708C15.8464 14.7525 15.8464 13.7499 15.2281 13.1316L9.7875 7.69101L12.7528 7.69108C13.6272 7.69111 14.3361 6.98224 14.3362 6.10779C14.3362 5.23334 13.6273 4.52444 12.7529 4.52442L5.96651 4.52425Z"/>
</mask>
<path fill-rule="evenodd" clip-rule="evenodd" d="M5.96651 4.52425C5.56076 4.52384 5.15489 4.67842 4.84531 4.988C4.51813 5.31518 4.36407 5.74993 4.38314 6.17841L4.3833 12.8938C4.38332 13.7683 5.09222 14.4771 5.96667 14.4771C6.84112 14.4771 7.54998 13.7682 7.54996 12.8937L7.54989 9.93175L12.9889 15.3708C13.6073 15.9891 14.6098 15.9891 15.2281 15.3708C15.8464 14.7525 15.8464 13.7499 15.2281 13.1316L9.7875 7.69101L12.7528 7.69108C13.6272 7.69111 14.3361 6.98224 14.3362 6.10779C14.3362 5.23334 13.6273 4.52444 12.7529 4.52442L5.96651 4.52425Z" fill="#B4E7C3"/>
<path d="M5.96651 4.52425L5.96411 6.89925H5.96645L5.96651 4.52425ZM4.38314 6.17841L6.75814 6.17836L6.75814 6.12557L6.75579 6.07283L4.38314 6.17841ZM4.3833 12.8938L6.7583 12.8938L6.7583 12.8938L4.3833 12.8938ZM5.96667 14.4771L5.96672 16.8521L5.96672 16.8521L5.96667 14.4771ZM7.54996 12.8937L5.17496 12.8938L5.17496 12.8938L7.54996 12.8937ZM7.54989 9.93175L9.22927 8.25237L5.17476 4.19786L5.17489 9.93181L7.54989 9.93175ZM12.9889 15.3708L11.3095 17.0502L12.9889 15.3708ZM15.2281 13.1316L13.5487 14.811L15.2281 13.1316ZM9.7875 7.69101L9.78756 5.31601L4.0536 5.31587L8.10812 9.37039L9.7875 7.69101ZM12.7528 7.69108L12.7527 10.0661L12.7528 7.69108ZM14.3362 6.10779L11.9612 6.10773L11.9612 6.10773L14.3362 6.10779ZM12.7529 4.52442L12.7528 6.89942L12.7528 6.89942L12.7529 4.52442ZM6.52469 6.66738C6.37036 6.82171 6.16328 6.89945 5.96411 6.89925L5.96891 2.14925C4.95825 2.14823 3.93942 2.53514 3.16593 3.30862L6.52469 6.66738ZM6.75579 6.07283C6.76511 6.28224 6.68832 6.50375 6.52469 6.66738L3.16593 3.30862C2.34794 4.12662 1.96303 5.21762 2.01049 6.284L6.75579 6.07283ZM6.7583 12.8938L6.75814 6.17836L2.00814 6.17847L2.0083 12.8939L6.7583 12.8938ZM5.96661 12.1021C6.40384 12.1021 6.75829 12.4565 6.7583 12.8938L2.0083 12.8939C2.00835 15.08 3.78059 16.8522 5.96672 16.8521L5.96661 12.1021ZM5.17496 12.8938C5.17495 12.4566 5.52939 12.1021 5.96661 12.1021L5.96672 16.8521C8.15285 16.8521 9.92501 15.0798 9.92496 12.8937L5.17496 12.8938ZM5.17489 9.93181L5.17496 12.8938L9.92496 12.8937L9.92489 9.9317L5.17489 9.93181ZM14.6683 13.6914L9.22927 8.25237L5.87052 11.6111L11.3095 17.0502L14.6683 13.6914ZM13.5487 13.6914C13.8579 13.3822 14.3591 13.3822 14.6683 13.6914L11.3095 17.0502C12.8554 18.596 15.3616 18.596 16.9075 17.0502L13.5487 13.6914ZM13.5487 14.811C13.2396 14.5018 13.2396 14.0006 13.5487 13.6914L16.9075 17.0502C18.4533 15.5043 18.4533 12.9981 16.9075 11.4522L13.5487 14.811ZM8.10812 9.37039L13.5487 14.811L16.9075 11.4522L11.4669 6.01163L8.10812 9.37039ZM12.7528 5.31608L9.78756 5.31601L9.78744 10.066L12.7527 10.0661L12.7528 5.31608ZM11.9612 6.10773C11.9612 5.67051 12.3156 5.31607 12.7528 5.31608L12.7527 10.0661C14.9389 10.0661 16.7111 8.29398 16.7112 6.10785L11.9612 6.10773ZM12.7528 6.89942C12.3156 6.89941 11.9611 6.54496 11.9612 6.10773L16.7112 6.10785C16.7112 3.92172 14.939 2.14947 12.7529 2.14942L12.7528 6.89942ZM5.96645 6.89925L12.7528 6.89942L12.7529 2.14942L5.96657 2.14925L5.96645 6.89925Z" fill="white" mask="url(#path-2-outside-1_2431_11880)"/>
<mask id="path-4-outside-2_2431_11880" maskUnits="userSpaceOnUse" x="14.2919" y="13.4264" width="28.2843" height="28.2843" fill="black">
<rect fill="white" x="14.2919" y="13.4264" width="28.2843" height="28.2843"/>
<path fill-rule="evenodd" clip-rule="evenodd" d="M32.7005 33.2512C33.1062 33.2516 33.5121 33.097 33.8217 32.7874C34.1489 32.4602 34.3029 32.0255 34.2839 31.597L34.2837 24.8816C34.2837 24.0072 33.5748 23.2983 32.7003 23.2983C31.8259 23.2983 31.117 24.0072 31.117 24.8817L31.1171 27.8437L25.6781 22.4046C25.0597 21.7863 24.0572 21.7863 23.4389 22.4046C22.8206 23.023 22.8206 24.0255 23.4389 24.6438L28.8795 30.0844L25.9142 30.0843C25.0398 30.0843 24.3309 30.7932 24.3308 31.6676C24.3308 32.5421 25.0397 33.251 25.9141 33.251L32.7005 33.2512Z"/>
</mask>
<path fill-rule="evenodd" clip-rule="evenodd" d="M32.7005 33.2512C33.1062 33.2516 33.5121 33.097 33.8217 32.7874C34.1489 32.4602 34.3029 32.0255 34.2839 31.597L34.2837 24.8816C34.2837 24.0072 33.5748 23.2983 32.7003 23.2983C31.8259 23.2983 31.117 24.0072 31.117 24.8817L31.1171 27.8437L25.6781 22.4046C25.0597 21.7863 24.0572 21.7863 23.4389 22.4046C22.8206 23.023 22.8206 24.0255 23.4389 24.6438L28.8795 30.0844L25.9142 30.0843C25.0398 30.0843 24.3309 30.7932 24.3308 31.6676C24.3308 32.5421 25.0397 33.251 25.9141 33.251L32.7005 33.2512Z" fill="#B4E7C3"/>
<path d="M32.7005 33.2512L32.7029 30.8762H32.7005L32.7005 33.2512ZM34.2839 31.597L31.9089 31.5971L31.9089 31.6499L31.9112 31.7026L34.2839 31.597ZM34.2837 24.8816L31.9087 24.8817L31.9087 24.8817L34.2837 24.8816ZM32.7003 23.2983L32.7004 25.6733L32.7004 25.6733L32.7003 23.2983ZM31.117 24.8817L33.492 24.8816V24.8816L31.117 24.8817ZM31.1171 27.8437L29.4377 29.523L33.4922 33.5776L33.4921 27.8436L31.1171 27.8437ZM25.6781 22.4046L27.3574 20.7253L27.3574 20.7253L25.6781 22.4046ZM23.4389 24.6438L25.1183 22.9644L25.1183 22.9644L23.4389 24.6438ZM28.8795 30.0844L28.8794 32.4594L34.6134 32.4595L30.5589 28.405L28.8795 30.0844ZM25.9142 30.0843L25.9141 32.4593L25.9142 32.4593L25.9142 30.0843ZM24.3308 31.6676L26.7058 31.6677L26.7058 31.6677L24.3308 31.6676ZM25.9141 33.251L25.9142 30.876L25.9142 30.876L25.9141 33.251ZM32.1423 31.108C32.2966 30.9537 32.5037 30.876 32.7029 30.8762L32.6981 35.6262C33.7087 35.6272 34.7276 35.2403 35.5011 34.4668L32.1423 31.108ZM31.9112 31.7026C31.9019 31.4932 31.9787 31.2717 32.1423 31.108L35.5011 34.4668C36.3191 33.6488 36.704 32.5578 36.6565 31.4914L31.9112 31.7026ZM31.9087 24.8817L31.9089 31.5971L36.6589 31.597L36.6587 24.8816L31.9087 24.8817ZM32.7004 25.6733C32.2632 25.6733 31.9087 25.3189 31.9087 24.8817L36.6587 24.8816C36.6586 22.6954 34.8864 20.9233 32.7003 20.9233L32.7004 25.6733ZM33.492 24.8816C33.492 25.3188 33.1376 25.6733 32.7004 25.6733L32.7003 20.9233C30.5141 20.9234 28.742 22.6956 28.742 24.8817L33.492 24.8816ZM33.4921 27.8436L33.492 24.8816L28.742 24.8817L28.7421 27.8437L33.4921 27.8436ZM23.9987 24.084L29.4377 29.523L32.7965 26.1643L27.3574 20.7253L23.9987 24.084ZM25.1183 24.084C24.8091 24.3932 24.3079 24.3932 23.9987 24.084L27.3574 20.7253C25.8116 19.1794 23.3053 19.1794 21.7595 20.7253L25.1183 24.084ZM25.1183 22.9644C25.4274 23.2736 25.4274 23.7749 25.1183 24.084L21.7595 20.7253C20.2137 22.2711 20.2137 24.7774 21.7595 26.3232L25.1183 22.9644ZM30.5589 28.405L25.1183 22.9644L21.7595 26.3232L27.2001 31.7638L30.5589 28.405ZM25.9142 32.4593L28.8794 32.4594L28.8796 27.7094L25.9143 27.7093L25.9142 32.4593ZM26.7058 31.6677C26.7058 32.1049 26.3514 32.4593 25.9141 32.4593L25.9143 27.7093C23.7281 27.7093 21.9559 29.4814 21.9558 31.6676L26.7058 31.6677ZM25.9142 30.876C26.3514 30.876 26.7058 31.2305 26.7058 31.6677L21.9558 31.6676C21.9558 33.8537 23.7279 35.626 25.9141 35.626L25.9142 30.876ZM32.7005 30.8762L25.9142 30.876L25.9141 35.626L32.7004 35.6262L32.7005 30.8762Z" fill="white" mask="url(#path-4-outside-2_2431_11880)"/>
<mask id="path-6-outside-3_2431_11880" maskUnits="userSpaceOnUse" x="-3.90914" y="13.4264" width="28.2843" height="28.2843" fill="black">
<rect fill="white" x="-3.90914" y="13.4264" width="28.2843" height="28.2843"/>
<path fill-rule="evenodd" clip-rule="evenodd" d="M5.96651 33.2512C5.56076 33.2516 5.15489 33.0971 4.84531 32.7875C4.51813 32.4603 4.36407 32.0256 4.38314 31.5971L4.3833 24.8817C4.38332 24.0072 5.09222 23.2983 5.96667 23.2984C6.84112 23.2984 7.54998 24.0073 7.54996 24.8817L7.54989 27.8437L12.9889 22.4047C13.6073 21.7864 14.6098 21.7864 15.2281 22.4047C15.8464 23.023 15.8464 24.0255 15.2281 24.6439L9.7875 30.0845L12.7528 30.0844C13.6272 30.0844 14.3361 30.7932 14.3362 31.6677C14.3362 32.5421 13.6273 33.251 12.7529 33.2511L5.96651 33.2512Z"/>
</mask>
<path fill-rule="evenodd" clip-rule="evenodd" d="M5.96651 33.2512C5.56076 33.2516 5.15489 33.0971 4.84531 32.7875C4.51813 32.4603 4.36407 32.0256 4.38314 31.5971L4.3833 24.8817C4.38332 24.0072 5.09222 23.2983 5.96667 23.2984C6.84112 23.2984 7.54998 24.0073 7.54996 24.8817L7.54989 27.8437L12.9889 22.4047C13.6073 21.7864 14.6098 21.7864 15.2281 22.4047C15.8464 23.023 15.8464 24.0255 15.2281 24.6439L9.7875 30.0845L12.7528 30.0844C13.6272 30.0844 14.3361 30.7932 14.3362 31.6677C14.3362 32.5421 13.6273 33.251 12.7529 33.2511L5.96651 33.2512Z" fill="#B4E7C3"/>
<path d="M5.96651 33.2512L5.96411 30.8762H5.96645L5.96651 33.2512ZM4.38314 31.5971L6.75814 31.5971L6.75814 31.6499L6.75579 31.7027L4.38314 31.5971ZM4.3833 24.8817L6.7583 24.8817L6.7583 24.8817L4.3833 24.8817ZM5.96667 23.2984L5.96672 20.9234L5.96672 20.9234L5.96667 23.2984ZM7.54996 24.8817L5.17496 24.8817L5.17496 24.8817L7.54996 24.8817ZM7.54989 27.8437L9.22927 29.5231L5.17476 33.5776L5.17489 27.8437L7.54989 27.8437ZM12.9889 22.4047L11.3095 20.7253L12.9889 22.4047ZM15.2281 24.6439L13.5487 22.9645L15.2281 24.6439ZM9.7875 30.0845L9.78756 32.4595L4.0536 32.4596L8.10812 28.4051L9.7875 30.0845ZM12.7528 30.0844L12.7527 27.7094L12.7528 30.0844ZM14.3362 31.6677L11.9612 31.6678L11.9612 31.6677L14.3362 31.6677ZM12.7529 33.2511L12.7528 30.8761L12.7528 30.8761L12.7529 33.2511ZM6.52469 31.1081C6.37036 30.9538 6.16328 30.876 5.96411 30.8762L5.96891 35.6262C4.95825 35.6273 3.93942 35.2403 3.16593 34.4669L6.52469 31.1081ZM6.75579 31.7027C6.76511 31.4932 6.68832 31.2717 6.52469 31.1081L3.16593 34.4669C2.34794 33.6489 1.96303 32.5579 2.01049 31.4915L6.75579 31.7027ZM6.7583 24.8817L6.75814 31.5971L2.00814 31.597L2.0083 24.8816L6.7583 24.8817ZM5.96661 25.6734C6.40384 25.6734 6.75829 25.3189 6.7583 24.8817L2.0083 24.8816C2.00835 22.6955 3.78059 20.9233 5.96672 20.9234L5.96661 25.6734ZM5.17496 24.8817C5.17495 25.3189 5.52939 25.6734 5.96661 25.6734L5.96672 20.9234C8.15285 20.9234 9.92501 22.6957 9.92496 24.8818L5.17496 24.8817ZM5.17489 27.8437L5.17496 24.8817L9.92496 24.8818L9.92489 27.8438L5.17489 27.8437ZM14.6683 24.0841L9.22927 29.5231L5.87052 26.1644L11.3095 20.7253L14.6683 24.0841ZM13.5487 24.0841C13.8579 24.3932 14.3591 24.3932 14.6683 24.0841L11.3095 20.7253C12.8554 19.1795 15.3616 19.1795 16.9075 20.7253L13.5487 24.0841ZM13.5487 22.9645C13.2396 23.2737 13.2396 23.7749 13.5487 24.0841L16.9075 20.7253C18.4533 22.2711 18.4533 24.7774 16.9075 26.3233L13.5487 22.9645ZM8.10812 28.4051L13.5487 22.9645L16.9075 26.3233L11.4669 31.7638L8.10812 28.4051ZM12.7528 32.4594L9.78756 32.4595L9.78744 27.7095L12.7527 27.7094L12.7528 32.4594ZM11.9612 31.6677C11.9612 32.105 12.3156 32.4594 12.7528 32.4594L12.7527 27.7094C14.9389 27.7093 16.7111 29.4815 16.7112 31.6676L11.9612 31.6677ZM12.7528 30.8761C12.3156 30.8761 11.9611 31.2305 11.9612 31.6678L16.7112 31.6676C16.7112 33.8538 14.939 35.626 12.7529 35.6261L12.7528 30.8761ZM5.96645 30.8762L12.7528 30.8761L12.7529 35.6261L5.96657 35.6262L5.96645 30.8762Z" fill="white" mask="url(#path-6-outside-3_2431_11880)"/>
<mask id="path-8-outside-4_2431_11880" maskUnits="userSpaceOnUse" x="14.2919" y="-3.93579" width="28.2843" height="28.2843" fill="black">
<rect fill="white" x="14.2919" y="-3.93579" width="28.2843" height="28.2843"/>
<path fill-rule="evenodd" clip-rule="evenodd" d="M32.7002 4.52367C33.106 4.52319 33.512 4.67777 33.8217 4.98742C34.1489 5.3146 34.3029 5.74935 34.2839 6.17783L34.2837 12.8932C34.2837 13.7677 33.5748 14.4766 32.7003 14.4765C31.8259 14.4765 31.117 13.7676 31.117 12.8932L31.1171 9.93117L25.6781 15.3702C25.0597 15.9885 24.0572 15.9885 23.4389 15.3702C22.8206 14.7519 22.8206 13.7494 23.4389 13.131L28.8795 7.69043L25.9142 7.69051C25.0398 7.69053 24.3309 6.98166 24.3308 6.10721C24.3308 5.23276 25.0397 4.52386 25.9141 4.52384L32.7002 4.52367Z"/>
</mask>
<path fill-rule="evenodd" clip-rule="evenodd" d="M32.7002 4.52367C33.106 4.52319 33.512 4.67777 33.8217 4.98742C34.1489 5.3146 34.3029 5.74935 34.2839 6.17783L34.2837 12.8932C34.2837 13.7677 33.5748 14.4766 32.7003 14.4765C31.8259 14.4765 31.117 13.7676 31.117 12.8932L31.1171 9.93117L25.6781 15.3702C25.0597 15.9885 24.0572 15.9885 23.4389 15.3702C22.8206 14.7519 22.8206 13.7494 23.4389 13.131L28.8795 7.69043L25.9142 7.69051C25.0398 7.69053 24.3309 6.98166 24.3308 6.10721C24.3308 5.23276 25.0397 4.52386 25.9141 4.52384L32.7002 4.52367Z" fill="#B4E7C3"/>
<path d="M32.7002 4.52367L32.703 6.89867L32.7003 6.89867L32.7002 4.52367ZM34.2839 6.17783L31.9089 6.17777L31.9089 6.12498L31.9112 6.07225L34.2839 6.17783ZM34.2837 12.8932L31.9087 12.8932L31.9087 12.8932L34.2837 12.8932ZM32.7003 14.4765L32.7004 12.1015L32.7004 12.1015L32.7003 14.4765ZM31.117 12.8932L33.492 12.8932V12.8932L31.117 12.8932ZM31.1171 9.93117L29.4377 8.25179L33.4922 4.19728L33.4921 9.93123L31.1171 9.93117ZM25.6781 15.3702L27.3574 17.0496L25.6781 15.3702ZM23.4389 13.131L25.1183 14.8104L23.4389 13.131ZM28.8795 7.69043L28.8794 5.31543L34.6134 5.31529L30.5589 9.36981L28.8795 7.69043ZM25.9142 7.69051L25.9141 5.3155L25.9142 5.3155L25.9142 7.69051ZM24.3308 6.10721L26.7058 6.10715L26.7058 6.10715L24.3308 6.10721ZM25.9141 4.52384L25.9142 6.89884L25.9141 4.52384ZM32.1423 6.6668C32.2967 6.82117 32.5038 6.89891 32.703 6.89867L32.6974 2.14868C33.7083 2.14747 34.7274 2.53438 35.5011 3.30804L32.1423 6.6668ZM31.9112 6.07225C31.9019 6.28166 31.9787 6.50317 32.1423 6.6668L35.5011 3.30804C36.319 4.12603 36.704 5.21703 36.6565 6.2834L31.9112 6.07225ZM31.9087 12.8932L31.9089 6.17777L36.6589 6.17788L36.6587 12.8933L31.9087 12.8932ZM32.7004 12.1015C32.2632 12.1015 31.9087 12.456 31.9087 12.8932L36.6587 12.8933C36.6586 15.0794 34.8864 16.8516 32.7003 16.8515L32.7004 12.1015ZM33.492 12.8932C33.492 12.456 33.1376 12.1015 32.7004 12.1015L32.7003 16.8515C30.5141 16.8515 28.742 15.0792 28.742 12.8931L33.492 12.8932ZM33.4921 9.93123L33.492 12.8932L28.742 12.8931L28.7421 9.93112L33.4921 9.93123ZM23.9987 13.6908L29.4377 8.25179L32.7965 11.6106L27.3574 17.0496L23.9987 13.6908ZM25.1183 13.6908C24.8091 13.3817 24.3079 13.3817 23.9987 13.6908L27.3574 17.0496C25.8116 18.5954 23.3053 18.5954 21.7595 17.0496L25.1183 13.6908ZM25.1183 14.8104C25.4274 14.5012 25.4274 14 25.1183 13.6908L21.7595 17.0496C20.2137 15.5038 20.2137 12.9975 21.7595 11.4517L25.1183 14.8104ZM30.5589 9.36981L25.1183 14.8104L21.7595 11.4517L27.2001 6.01105L30.5589 9.36981ZM25.9142 5.3155L28.8794 5.31543L28.8796 10.0654L25.9143 10.0655L25.9142 5.3155ZM26.7058 6.10715C26.7058 5.66993 26.3514 5.31549 25.9141 5.3155L25.9143 10.0655C23.7281 10.0656 21.9559 8.2934 21.9558 6.10727L26.7058 6.10715ZM25.9142 6.89884C26.3514 6.89883 26.7058 6.54438 26.7058 6.10715L21.9558 6.10727C21.9558 3.92114 23.7279 2.14889 25.9141 2.14884L25.9142 6.89884ZM32.7003 6.89867L25.9142 6.89884L25.9141 2.14884L32.7001 2.14867L32.7003 6.89867Z" fill="white" mask="url(#path-8-outside-4_2431_11880)"/>
</g>
<defs>
<clipPath id="clip0_2431_11880">
<rect width="38" height="38" fill="white" transform="translate(0.333496)"/>
</clipPath>
</defs>
</svg>
