<svg width="48" height="48" viewBox="0 0 48 48" fill="none" xmlns="http://www.w3.org/2000/svg">
<path d="M35 12.0001L31.6148 12.4837C29.5407 12.78 28 14.5564 28 16.6517V16.7019C28 16.9004 28.0164 17.0985 28.049 17.2943V17.2943C28.4876 19.9255 26.0144 22.1044 23.4594 21.3379L21.7985 20.8397C20.1358 20.3408 18.3423 20.9867 17.3793 22.4311V22.4311C17.1283 22.8077 16.9439 23.2245 16.8341 23.6635L16 27.0001" stroke="#B4E7C3" stroke-width="5" stroke-linecap="round" stroke-linejoin="round"/>
<path d="M35 37.0001C30.8408 35.091 28.4094 33.3043 28 30.0001" stroke="#B4E7C3" stroke-width="5" stroke-linecap="round" stroke-linejoin="round"/>
<path d="M42 24.0001C42 33.9412 33.9411 42.0001 24 42.0001C14.0589 42.0001 6 33.9412 6 24.0001C6 14.059 14.0589 6.00012 24 6.00012C33.9411 6.00012 42 14.059 42 24.0001Z" stroke="#155728" stroke-width="5"/>
</svg>
