<svg width="38" height="29" viewBox="0 0 38 29" fill="none" xmlns="http://www.w3.org/2000/svg">
<g clip-path="url(#clip0_2157_1484)">
<path d="M22.0397 13.7055C21.9895 13.4574 21.7979 13.2376 21.4682 13.0492V14.6382L21.4776 14.632C21.801 14.4467 21.9926 14.2268 22.0397 13.9819C22.0523 13.9379 22.0554 13.8908 22.0554 13.8406C22.0554 13.7935 22.0554 13.7495 22.0397 13.7055ZM14.5842 9.52866C14.0597 9.52866 13.6012 9.63857 13.2149 9.86155L9.11029 12.2327C8.72087 12.4588 8.5293 12.7225 8.5293 13.024C8.53244 13.3287 8.72715 13.5925 9.11657 13.8186L13.1772 16.1645L13.2149 16.1425C13.6012 15.9196 14.0597 15.8096 14.5842 15.8096C15.1086 15.8096 15.5703 15.9227 15.9597 16.1488V9.86783C15.5703 9.64171 15.1118 9.52866 14.5842 9.52866Z" fill="#696F6E" stroke="#E5EDEB" stroke-width="0.515939"/>
<path d="M37.1509 18.8832C37.1509 19.0088 37.1352 19.1375 37.1007 19.2663C36.975 19.7217 36.6296 20.1142 36.058 20.444L29.5918 24.178C26.4011 26.0215 22.5006 27.2118 17.8935 27.7519C13.2863 28.2921 8.91792 27.9655 4.79445 26.7689C4.6123 26.7156 4.43957 26.6559 4.27941 26.5899C4.11924 26.524 3.95594 26.4423 3.79577 26.3513C3.6356 26.257 3.49742 26.166 3.38436 26.0718C3.26817 25.9807 3.16453 25.8802 3.07346 25.7734C1.64453 24.1341 0.931641 22.4256 0.931641 20.6544V14.3734C0.931641 15.4161 1.17974 16.4367 1.67594 17.4354C2.01825 18.1326 2.48619 18.8172 3.07346 19.4924C3.16453 19.5992 3.26817 19.6997 3.38436 19.7908C3.49742 19.885 3.6356 19.9761 3.79577 20.0703C3.95594 20.1613 4.11924 20.243 4.27941 20.3089C4.43957 20.3749 4.6123 20.4346 4.79445 20.488C7.06817 21.1475 9.41412 21.5432 11.8386 21.6719C13.8077 21.7818 15.827 21.7127 17.8935 21.4709C19.1622 21.3233 20.3744 21.1255 21.5364 20.8742C24.5921 20.2273 27.2804 19.2349 29.5918 17.897L34.5098 15.0581L36.058 14.163C36.6296 13.8332 36.975 13.4407 37.1007 12.9853C37.1227 12.9005 37.1384 12.8157 37.1446 12.7341L37.1509 18.8832Z" fill="#696F6E" stroke="#E5EDEB" stroke-width="0.515939"/>
<path d="M36.7992 11.6699L31.6174 5.12199C31.4101 4.87075 31.1463 4.65092 30.8229 4.46563C30.5025 4.28034 30.1257 4.12645 29.6892 4.00711L18.3488 1.01421C17.614 0.82892 16.854 0.772413 16.0657 0.841504C15.2743 0.913735 14.5959 1.1147 14.0244 1.44446L7.56122 5.17538C4.36734 7.01885 2.3009 9.27059 1.36817 11.9306C1.07611 12.7565 0.931641 13.5731 0.931641 14.3739C0.931641 15.4165 1.17974 16.4372 1.67594 17.4359C2.01825 18.1331 2.48619 18.8177 3.07346 19.4929C3.16453 19.5997 3.26817 19.7002 3.38436 19.7912C3.49742 19.8855 3.6356 19.9765 3.79577 20.0707C3.95594 20.1618 4.11924 20.2435 4.27941 20.3094C4.43957 20.3754 4.6123 20.435 4.79445 20.4884C7.06817 21.1479 9.41412 21.5436 11.8386 21.6724C13.8077 21.7823 15.827 21.7132 17.8935 21.4714C19.1622 21.3238 20.3744 21.126 21.5364 20.8747C24.5921 20.2278 27.2804 19.2354 29.5918 17.8975L34.5098 15.0585L36.058 14.1635C36.6296 13.8337 36.975 13.4412 37.1007 12.9858C37.1226 12.901 37.1383 12.8162 37.1446 12.7346V12.5085C37.1226 12.2227 37.0096 11.94 36.7992 11.6699ZM22.8366 12.2572L22.0389 12.7188L21.4673 13.0486C21.7971 13.237 21.9887 13.4569 22.0389 13.705C22.0515 13.7489 22.0546 13.7929 22.0546 13.84C22.0546 13.8903 22.0546 13.9374 22.0389 13.9813C21.9918 14.2263 21.8002 14.4461 21.4768 14.6314L21.4673 14.6377L21.1847 14.801L20.0918 15.4322L19.2156 15.9379L17.4035 16.9805L17.369 17.0025C16.9827 17.2286 16.5273 17.3385 15.9997 17.3385C15.4721 17.3353 15.0136 17.2223 14.6242 16.9993L13.1764 16.164L9.11577 13.818C8.72635 13.5919 8.53164 13.3281 8.5285 13.0235C8.5285 12.722 8.72007 12.4582 9.10949 12.2321L13.2141 9.861C13.6004 9.63802 14.0589 9.52807 14.5834 9.52807C15.1078 9.52807 15.5695 9.64116 15.9589 9.86728L17.3282 9.07587C18.0787 8.64249 18.9958 8.42576 20.0698 8.4289C21.1439 8.4289 22.0609 8.64877 22.8178 9.08844C23.5746 9.52497 23.9578 10.0526 23.9609 10.6744C23.964 11.2962 23.5872 11.8238 22.8366 12.2572Z" fill="#696F6E" stroke="#E5EDEB" stroke-width="0.515939"/>
<path d="M22.0392 10.6712C22.0392 10.9759 21.8476 11.2397 21.4582 11.4626L20.0921 12.2541L17.3379 10.6619L18.704 9.87359C19.0934 9.64747 19.5488 9.53752 20.0764 9.53752C20.604 9.53752 21.0594 9.65375 21.4519 9.87673C21.8414 10.1028 22.0361 10.3666 22.0392 10.6712Z" fill="#696F6E" stroke="#E5EDEB" stroke-width="0.515939"/>
<path d="M20.0921 12.2539V15.4321L19.2159 15.9377L17.4038 16.9804L17.3693 17.0024V16.9238L17.3599 15.341L17.3379 10.6617L20.0921 12.2539Z" fill="#696F6E" stroke="#E5EDEB" stroke-width="0.515939"/>
<path d="M22.0389 10.6714V12.719L21.4673 13.0487V14.6378L21.1847 14.8011L20.0918 15.4324V12.2542L21.4579 11.4628C21.8473 11.2398 22.0389 10.976 22.0389 10.6714Z" fill="#696F6E" stroke="#E5EDEB" stroke-width="0.515939"/>
<path d="M23.9609 10.6745C23.9641 11.2963 23.5872 11.8239 22.8367 12.2573L22.039 12.7189V10.6713C22.0358 10.3667 21.8411 10.1029 21.4517 9.87682C21.0591 9.65384 20.6006 9.53761 20.0761 9.53761C19.5517 9.53761 19.0932 9.64753 18.7037 9.87365L17.3377 10.6619L17.3596 15.3412C17.3596 15.3412 17.3376 15.3507 17.3282 15.357L15.959 16.1484V9.86737L17.3282 9.07596C18.0788 8.64257 18.9958 8.42588 20.0699 8.42902C21.1439 8.42902 22.061 8.64885 22.8178 9.08852C23.5747 9.52505 23.9578 10.0527 23.9609 10.6745Z" fill="#696F6E" stroke="#E5EDEB" stroke-width="0.515939"/>
<path d="M22.0391 13.9816V13.7053" stroke="#E5EDEB" stroke-width="0.515939"/>
<path d="M0.931641 20.8907V20.6552" stroke="#E5EDEB" stroke-width="0.515939"/>
<path d="M0.931641 14.3739V13.8337" stroke="#E5EDEB" stroke-width="0.515939"/>
</g>
<defs>
<clipPath id="clip0_2157_1484">
<rect width="38" height="28.8926" fill="white"/>
</clipPath>
</defs>
</svg>
