<svg width="38" height="38" viewBox="0 0 38 38" fill="none" xmlns="http://www.w3.org/2000/svg">
<rect width="38" height="38" fill="#F1F7F6"/>
<path d="M12.6665 19V7.91663V7.91663C12.6665 5.29327 10.5399 3.16663 7.9165 3.16663V3.16663C5.29315 3.16663 3.1665 5.29327 3.1665 7.91663V7.91663C3.1665 10.54 5.29315 12.6666 7.9165 12.6666V12.6666H20.5832" stroke="#353A39" stroke-width="3.95833"/>
<path d="M24.5415 19L24.5415 29.2916V29.2916C24.5415 31.915 26.6682 34.0416 29.2915 34.0416V34.0416C31.9149 34.0416 34.0415 31.915 34.0415 29.2916V29.2916C34.0415 26.6683 31.9149 24.5416 29.2915 24.5416V24.5416L16.6248 24.5416" stroke="#353A39" stroke-width="3.95833"/>
<path d="M24.5415 19V7.91663V7.91663C24.5415 5.29327 26.6682 3.16663 29.2915 3.16663V3.16663C31.9149 3.16663 34.0415 5.29327 34.0415 7.91663V7.91663C34.0415 10.54 31.9149 12.6666 29.2915 12.6666V12.6666H20.5832" stroke="#C1C9C8" stroke-width="3.95833"/>
<path d="M12.6665 19L12.6665 29.2916V29.2916C12.6665 31.915 10.5399 34.0416 7.9165 34.0416V34.0416C5.29315 34.0416 3.1665 31.915 3.1665 29.2916V29.2916C3.1665 26.6683 5.29315 24.5416 7.9165 24.5416V24.5416L16.6248 24.5416" stroke="#C1C9C8" stroke-width="3.95833"/>
</svg>
