<svg width="24" height="24" viewBox="0 0 24 24" fill="none" xmlns="http://www.w3.org/2000/svg">
<path d="M12 5.76393C8.34027 4.20501 6.2446 4.1017 3.13136 5.37903C2.58963 5.6013 2.25 6.13906 2.25 6.72461V15.9268C2.25 17.0126 3.36784 17.7275 4.40571 17.4083C7.01757 16.605 8.98528 16.8859 12 18.2363C15.336 19.7724 17.407 19.9218 20.8299 18.6092C21.3913 18.394 21.75 17.8456 21.75 17.2444V8.07901C21.75 6.99163 20.6294 6.27709 19.5901 6.59694C17.0129 7.39012 15.0409 7.11743 12 5.76393Z" fill="#043B56" stroke="#043B56" stroke-width="1.5"/>
<circle cx="12" cy="12" r="3" fill="#B3E4FB"/>
<path d="M5.25 7.50097C6.32196 7.01327 6.96834 6.94008 8.25 7.50097" stroke="#B3E4FB" stroke-width="1.5" stroke-linecap="round"/>
<path d="M15.75 16.1065C16.822 16.5941 17.4683 16.6673 18.75 16.1065" stroke="#B3E4FB" stroke-width="1.5" stroke-linecap="round"/>
</svg>
