<svg width="38" height="30" viewBox="0 0 38 30" fill="none" xmlns="http://www.w3.org/2000/svg">
<path d="M21.7135 6.49338V13.0451C20.8978 13.317 20.0232 13.4546 19.083 13.4546C18.1461 13.4513 17.2682 13.3104 16.4492 13.0353V6.48355C17.2682 6.75872 18.1461 6.89959 19.083 6.90286C20.0232 6.90286 20.8978 6.76528 21.7135 6.49338Z" fill="#696F6E" stroke="#E5EDEB" stroke-width="0.520628"/>
<path d="M24.3653 18.8361V18.8525C24.3653 19.6813 23.8608 20.3856 22.8551 20.9654C21.8428 21.5518 20.6145 21.8433 19.1666 21.8401C17.7186 21.8368 16.4869 21.542 15.4681 20.9523C14.4493 20.3659 13.9382 19.6551 13.9317 18.8197C13.9284 17.9844 14.4329 17.2735 15.4451 16.6904C16.4574 16.104 17.6858 15.8125 19.1338 15.8158C20.5817 15.819 21.8134 16.1139 22.8322 16.7035C23.851 17.2899 24.362 18.0008 24.3653 18.8361Z" fill="#696F6E" stroke="#E5EDEB" stroke-width="0.520628"/>
<path d="M37.2534 11.3971V11.4037C37.2534 12.2357 36.7522 12.9466 35.7399 13.5264C34.7277 14.1128 33.4992 14.4044 32.0547 14.4011C30.6068 14.4011 29.375 14.103 28.3562 13.5133C27.475 13.0056 26.9706 12.4159 26.8461 11.7378C26.8265 11.6363 26.8133 11.5347 26.8133 11.4364V11.3251C26.8264 10.8042 27.0655 10.3128 27.5274 9.84764L24.268 7.96729L21.7161 6.49316C20.9004 6.76505 20.0258 6.90264 19.0856 6.90264C18.1487 6.89936 17.2708 6.7585 16.4518 6.48333L13.8704 7.97381L10.6764 9.81816C11.1678 10.3063 11.4102 10.8271 11.4102 11.3742C11.4102 11.4856 11.4004 11.5969 11.3808 11.7116C11.2596 12.3864 10.7649 12.9761 9.89027 13.4805C8.87803 14.0669 7.6463 14.3552 6.20165 14.3552C4.75372 14.3519 3.52196 14.0571 2.50317 13.4675C1.48438 12.8811 0.973364 12.1669 0.966813 11.3316C0.963537 10.4962 1.46798 9.78864 2.48022 9.20226C3.35489 8.69778 4.37696 8.41281 5.54317 8.34402C6.71265 8.27195 7.80682 8.40954 8.82561 8.74695L13.8704 5.83471L14.6009 5.41212C14.1292 4.94367 13.8868 4.44574 13.8704 3.92488V3.78402C13.8704 3.69557 13.8802 3.60712 13.8966 3.51867C14.0178 2.84384 14.5059 2.26073 15.3642 1.7628C16.3764 1.17969 17.6082 0.888139 19.0528 0.891415C20.5008 0.894691 21.7325 1.18953 22.7513 1.7759C23.6161 2.27711 24.1108 2.86349 24.2385 3.53833C24.2549 3.62022 24.2647 3.70212 24.268 3.78402V3.96419C24.2516 4.48178 24.0125 4.96988 23.5571 5.4285L24.268 5.83798L29.3685 8.78626C30.3808 8.44885 31.4749 8.31781 32.6444 8.38988C33.8137 8.46523 34.8391 8.75678 35.717 9.26454C36.7358 9.85091 37.2501 10.5618 37.2534 11.3971Z" fill="#696F6E" stroke="#E5EDEB" stroke-width="0.520628"/>
<path d="M27.5262 9.84752C27.0643 10.3127 26.8252 10.8041 26.8121 11.3249V15.9865L21.7148 13.0448V6.49304L24.2667 7.96718L27.5262 9.84752Z" fill="#696F6E" stroke="#E5EDEB" stroke-width="0.520628"/>
<path d="M24.2655 3.96432V5.83812L23.5547 5.42864C24.01 4.97002 24.2491 4.48191 24.2655 3.96432Z" fill="#696F6E" stroke="#E5EDEB" stroke-width="0.520628"/>
<path d="M14.5977 5.41195L13.8672 5.83454V3.92471C13.8836 4.44558 14.126 4.94351 14.5977 5.41195Z" fill="#696F6E" stroke="#E5EDEB" stroke-width="0.520628"/>
<path d="M11.4082 18.1385V17.9256" stroke="#E5EDEB" stroke-width="0.520628"/>
<path d="M11.4082 11.3743V11.1712" stroke="#E5EDEB" stroke-width="0.520628"/>
<path d="M16.4512 6.48355V13.0353L11.4096 15.9475V11.3744C11.4096 10.8273 11.1672 10.3065 10.6758 9.81838L13.8697 7.97407L16.4512 6.48355Z" fill="#696F6E" stroke="#E5EDEB" stroke-width="0.520628"/>
<path d="M11.4102 11.3736V17.9254C11.4102 18.0367 11.4004 18.1481 11.3808 18.2628C11.2596 18.9376 10.7649 19.5273 9.89024 20.0317C8.87799 20.6181 7.64627 20.9064 6.20161 20.9064C4.75368 20.9031 3.52196 20.6083 2.50316 20.0186C1.48436 19.4323 0.973349 18.7181 0.966797 17.8828V11.3311C0.973349 12.1664 1.48436 12.8805 2.50316 13.4669C3.52196 14.0566 4.75368 14.3514 6.20161 14.3547C7.64627 14.3547 8.87799 14.0664 9.89024 13.48C10.7649 12.9755 11.2596 12.3859 11.3808 11.7111C11.4004 11.5964 11.4102 11.485 11.4102 11.3736Z" fill="#696F6E" stroke="#E5EDEB" stroke-width="0.520628"/>
<path d="M24.3633 18.8526V25.388C24.3699 26.2233 23.8654 26.9342 22.8531 27.5173C21.8409 28.1037 20.6125 28.3952 19.1646 28.392C17.7167 28.3887 16.4849 28.0939 15.4661 27.5042C14.4473 26.9178 13.9362 26.207 13.9297 25.3716V18.8199C13.9362 19.6552 14.4473 20.3661 15.4661 20.9525C16.4849 21.5421 17.7167 21.837 19.1646 21.8402C20.6125 21.8435 21.8409 21.552 22.8531 20.9656C23.8588 20.3857 24.3633 19.6814 24.3633 18.8526Z" fill="#696F6E" stroke="#E5EDEB" stroke-width="0.520628"/>
<path d="M37.2507 11.4041V17.9492C37.254 18.7846 36.7528 19.4954 35.7373 20.0785C34.725 20.6649 33.4966 20.9565 32.0519 20.9532C30.604 20.9532 29.3723 20.6551 28.3535 20.0654C27.4723 19.5577 26.9678 18.968 26.8433 18.2899C26.8138 18.1392 26.804 17.9918 26.8105 17.8477L26.8204 15.9935L26.8105 15.987V11.4368C26.8105 11.5351 26.8237 11.6366 26.8433 11.7382C26.9678 12.4163 27.4723 13.0059 28.3535 13.5137C29.3723 14.1034 30.604 14.3982 32.0519 14.4015C33.4966 14.4047 34.725 14.1132 35.7373 13.5268C36.7495 12.947 37.2507 12.2361 37.2507 11.4041Z" fill="#696F6E" stroke="#E5EDEB" stroke-width="0.520628"/>
<path d="M26.8125 17.8465V15.9858" stroke="#E5EDEB" stroke-width="0.520628"/>
</svg>
