<svg xmlns="http://www.w3.org/2000/svg" width="24" height="24" viewBox="0 0 24 24" fill="none"><script xmlns="" id="datalayer-checker-script"/><script xmlns=""/>
<path d="M2 7.5925C2 6.73643 2.44961 5.93509 3.21585 5.55335C8.24765 3.04647 14.6616 2.38139 20.8037 5.54301C21.559 5.93179 22 6.72962 22 7.57909C22 8.91612 20.9161 10 19.5791 10H4.4075C3.07787 10 2 8.92213 2 7.5925Z" fill="#B4E7C3"/>
<path fill-rule="evenodd" clip-rule="evenodd" d="M14 7C14 6.17157 14.6716 5.5 15.5 5.5C16.3284 5.5 17 6.17157 17 7V8C17 8.03195 16.999 8.06366 16.997 8.09512C17.8333 8.31101 18.55 8.88198 18.941 9.67953L21.8821 15.6795C22.8592 17.6728 21.4082 20 19.1884 20H4.81165C2.59181 20 1.14081 17.6728 2.11789 15.6795L5.05906 9.67953C5.45001 8.88199 6.16668 8.31102 7.00297 8.09512C7.001 8.06367 7 8.03195 7 8V7C7 6.17157 7.67157 5.5 8.5 5.5C9.32843 5.5 10 6.17157 10 7V8H14V7Z" fill="#155728"/>
<ellipse cx="8.12221" cy="15.9408" rx="1.55111" ry="1.24088" fill="#B4E7C3"/>
<ellipse cx="12" cy="15.9407" rx="1.55111" ry="1.24088" fill="#B4E7C3"/>
<ellipse cx="15.8778" cy="15.9407" rx="1.55111" ry="1.24088" fill="#B4E7C3"/>
<ellipse cx="9.13045" cy="13.0703" rx="1.2021" ry="0.961684" fill="#B4E7C3"/>
<ellipse cx="12.1357" cy="13.0703" rx="1.2021" ry="0.961684" fill="#B4E7C3"/>
<ellipse cx="15.141" cy="13.0703" rx="1.2021" ry="0.961684" fill="#B4E7C3"/>
<ellipse cx="9.90598" cy="10.7135" rx="0.891884" ry="0.713507" fill="#B4E7C3"/>
<ellipse cx="12.1357" cy="10.7135" rx="0.891884" ry="0.713507" fill="#B4E7C3"/>
<ellipse cx="14.3655" cy="10.7135" rx="0.891884" ry="0.713507" fill="#B4E7C3"/>
<script xmlns=""/></svg>