<svg width="24" height="24" viewBox="0 0 24 24" fill="none" xmlns="http://www.w3.org/2000/svg">
<path fill-rule="evenodd" clip-rule="evenodd" d="M6.32983 3.57663C6.20803 3.45484 6.07425 3.35234 5.93227 3.26913C6.41171 3.09498 6.92914 3 7.46875 3H16.4688C18.954 3 20.9688 5.01472 20.9688 7.5V12.591L20.9544 12.5766C20.1856 11.8078 18.939 11.8078 18.1702 12.5766C17.714 13.0328 17.5285 13.6572 17.6136 14.2501L12.8123 14.25C11.725 14.25 10.8436 15.1314 10.8435 16.2187C10.8435 17.306 11.7249 18.1875 12.8122 18.1875L17.6137 18.1876C17.5284 18.7806 17.7139 19.4051 18.1702 19.8613C18.3738 20.0649 18.6109 20.2146 18.8638 20.3104C18.1702 20.7473 17.349 21 16.4688 21H7.46875C4.98347 21 2.96875 18.9853 2.96875 16.5V10.2844L3.54559 10.8613C4.31444 11.6301 5.56098 11.6301 6.32982 10.8613C6.78605 10.4051 6.97156 9.78063 6.88634 9.18761L11.6878 9.1875C12.7751 9.18747 13.6565 8.30601 13.6565 7.2187C13.6564 6.13139 12.775 5.24997 11.6877 5.25L6.88637 5.25011C6.97152 4.65716 6.786 4.03281 6.32983 3.57663Z" fill="#043B56"/>
<path fill-rule="evenodd" clip-rule="evenodd" d="M18.9657 13.3721C18.6362 13.7016 18.6362 14.2359 18.9657 14.5654L19.7755 15.3752L12.8123 15.375C12.3463 15.375 11.9686 15.7527 11.9685 16.2187C11.9685 16.6847 12.3463 17.0625 12.8123 17.0625L19.7756 17.0627L18.9657 17.8725C18.6362 18.2021 18.6362 18.7363 18.9657 19.0658C19.2952 19.3953 19.8294 19.3953 20.1589 19.0658L22.4091 16.8156C22.7386 16.4861 22.7386 15.9518 22.4091 15.6223L20.1589 13.3721C19.8294 13.0426 19.2952 13.0426 18.9657 13.3721Z" fill="#B3E4FB"/>
<path fill-rule="evenodd" clip-rule="evenodd" d="M5.53433 4.37213C5.86384 4.70163 5.86384 5.23587 5.53433 5.56537L4.72454 6.37516L11.6877 6.375C12.1537 6.37499 12.5314 6.75274 12.5315 7.21873C12.5315 7.68472 12.1537 8.06249 11.6877 8.0625L4.72445 8.06266L5.53433 8.87255C5.86384 9.20205 5.86384 9.73629 5.53433 10.0658C5.20483 10.3953 4.67059 10.3953 4.34109 10.0658L2.09088 7.81558C1.76137 7.48608 1.76137 6.95184 2.09088 6.62234L4.34109 4.37213C4.67059 4.04262 5.20483 4.04262 5.53433 4.37213Z" fill="#B3E4FB"/>
</svg>
